<?xml version="1.0" encoding="utf-8"?>
<!-- Generator: Adobe Illustrator 18.1.1, SVG Export Plug-In . SVG Version: 6.00 Build 0)  -->
<svg version="1.1" id="Layer_1" xmlns="http://www.w3.org/2000/svg" xmlns:xlink="http://www.w3.org/1999/xlink" x="0px" y="0px"
	 viewBox="0 0 458.356 29.069" enable-background="new 0 0 458.356 29.069" xml:space="preserve">
<g>
	<path fill="#FFFFFF" d="M17.634,6.87h-0.63c0.06-0.42,0.09-0.78,0.09-1.11c0-1.71-1.02-2.16-2.91-2.16h-4.32l-1.56,7.35h4.05
		c2.01,0,2.91-0.03,3.66-2.22h0.57l-1.23,6.03h-0.63c0.03-0.3,0.06-0.66,0.06-0.81c0-1.62-0.81-1.59-2.729-1.59h-4.05l-1.41,6.63
		c0,0.39,0.09,0.87,0.6,1.08l4.77-0.09c2.07-0.03,3.6-0.87,4.2-3.42h0.6l-1.02,4.77H5.725l-5.819,0.09l0.15-0.69
		c1.38-0.06,3.18-0.48,3.81-1.47L7.104,4.02c-0.15-0.6-1.47-0.99-2.82-1.05l0.12-0.66h11.82c0.87,0,1.439-0.09,1.86-0.21h0.57
		L17.634,6.87z"/>
	<path fill="#FFFFFF" d="M28.794,18.089c-0.06,0.36-0.12,0.81-0.12,1.05c0,0.36,0,0.81,0.33,0.81c0.24,0,1.44-1.11,2.58-2.46
		l0.54,0.45c-1.74,2.1-3.33,3.63-4.89,3.63c-0.66,0-0.9-0.93-0.9-1.98l0.75-3.33c-2.459,2.94-5.01,5.31-6.629,5.31
		c-0.51,0-1.44-0.87-1.44-3.21c0-2.43,0.87-5.13,2.67-6.96c1.92-1.95,4.5-2.97,7.049-3.45l0.78-4.14c0.09-0.51,0.18-0.9,0.18-1.2
		c0-0.6-0.3-0.81-1.14-0.81c-0.45,0-0.87,0.12-1.29,0.18l0.15-0.69l4.59-1.2h0.48L28.794,18.089z M27.145,9.87
		c-1.2,0-2.7,0.27-3.12,0.6c-1.47,1.17-2.67,3.6-2.67,7.049c0,1.77,0.45,2.31,0.78,2.31c0.42,0,2.94-2.13,5.1-4.8l1.11-5.04
		C27.984,9.899,27.475,9.87,27.145,9.87z"/>
	<path fill="#FFFFFF" d="M42.354,21.569c-0.66,0-0.9-0.93-0.9-1.98c0-0.75,0.96-4.29,0.96-4.29c-2.64,3.39-5.43,6.27-7.05,6.27
		c-0.51,0-1.29-1.14-1.29-2.04c0-0.54,0.15-1.23,0.45-2.31l1.44-5.49c0.15-0.54,0.42-1.65,0.42-1.77s0.06-0.39-0.09-0.39
		c-0.39,0-1.26,0.87-2.46,2.55l-0.57-0.39c1.68-2.4,2.97-3.57,4.35-3.57c0.66,0,0.93,0.84,0.93,1.8c0,0.3-0.06,0.6-0.12,0.9
		c-0.81,3.18-1.71,6.6-1.92,7.83c0,0.81,0.18,1.14,0.51,1.14c0.63,0,3.18-2.7,5.55-5.729l1.2-5.64h2.25l-2.1,9.63
		c-0.06,0.36-0.15,0.84-0.15,1.05c0,0.45,0.06,0.78,0.39,0.78s1.41-1.08,2.55-2.43l0.54,0.45
		C45.504,20.039,43.914,21.569,42.354,21.569z"/>
	<path fill="#FFFFFF" d="M56.274,11.37c-0.81-0.87-1.56-1.65-3.09-1.74c-0.96,0.57-2.58,3.24-2.58,6.36c0,3.06,0.96,4.11,2.13,4.11
		c0.9,0,2.22-0.99,3.63-2.52l0.48,0.48c-1.95,2.34-4.05,3.57-5.49,3.57c-1.89,0-3.15-1.95-3.15-4.649c0-2.31,1.02-4.5,2.46-6.18
		c1.44-1.68,3.15-2.58,4.709-2.58c1.62,0,2.43,0.9,2.43,1.53C57.804,10.26,56.844,11.1,56.274,11.37z"/>
	<path fill="#FFFFFF" d="M66.084,21.569c-0.66,0-0.93-0.93-0.93-1.98l0.81-3.48c-2.46,3-4.92,5.46-6.54,5.46
		c-0.51,0-1.44-0.87-1.44-3.21c0-2.43,0.87-4.77,2.67-6.6c2.25-2.31,5.129-3.33,8.189-3.54h0.9l-2.1,9.87
		c-0.06,0.3-0.12,0.87-0.12,1.08c0,0.39,0,0.69,0.33,0.69c0.36,0,1.44-1.02,2.58-2.37l0.54,0.45
		C69.234,20.039,67.644,21.569,66.084,21.569z M65.964,10.109c-1.2,0-2.52,0.24-2.97,0.6c-1.47,1.17-2.67,3.36-2.67,6.81
		c0,1.8,0.45,2.31,0.78,2.31c0.54,0,2.85-2.28,5.01-4.95l0.99-4.65C66.744,10.14,66.294,10.109,65.964,10.109z"/>
	<path fill="#FFFFFF" d="M79.523,9.81h-3.15l-1.5,7.979c-0.06,0.3-0.12,0.99-0.12,1.2c0,0.57,0.18,0.96,0.51,0.96
		s1.77-1.17,2.94-2.7l0.54,0.45c-1.89,2.43-3.66,3.87-5.22,3.87c-0.66,0-1.08-0.93-1.08-1.98c0-0.54,0.15-1.5,0.33-2.37l1.41-7.439
		l-1.89,0.06l0.15-0.63c2.04-0.93,3.15-1.83,4.44-3.9h0.66l-0.93,3.24h3.27L79.523,9.81z"/>
	<path fill="#FFFFFF" d="M81.954,21.569c-0.66,0-0.9-0.93-0.9-1.98c0-0.54,0.24-1.59,0.42-2.52l1.35-5.43
		c0.15-0.66,0.36-1.65,0.36-1.77c0-0.09,0.06-0.3-0.09-0.3c-0.39,0-1.26,0.87-2.46,2.55l-0.57-0.39c1.68-2.4,3-3.57,4.38-3.57
		c0.66,0,0.9,0.84,0.9,1.77c0,0.3-0.03,0.69-0.09,1.02l-1.74,6.959c-0.06,0.24-0.15,0.78-0.15,0.99c0,0.45,0.15,0.93,0.48,0.93
		c0.3,0,1.32-0.99,2.46-2.34l0.54,0.45C85.104,20.039,83.514,21.569,81.954,21.569z M85.313,3.51c-0.93,0-1.53-0.75-1.53-1.44
		c0-0.72,0.6-1.5,1.53-1.5c0.9,0,1.5,0.78,1.5,1.5C86.813,2.76,86.214,3.51,85.313,3.51z"/>
	<path fill="#FFFFFF" d="M97.163,21.569c-0.66,0-0.84-0.96-0.84-2.01c0-0.54,0.21-1.44,0.45-2.37c0,0,1.29-5.07,1.5-6.3
		c0-0.78-0.06-0.96-0.51-0.96c-0.57,0-3.27,2.79-5.64,5.669l-1.11,5.73h-2.22l1.98-9.689c0.09-0.51,0.39-1.65,0.39-1.77
		c0-0.09-0.03-0.3-0.09-0.3c-0.39,0-1.26,0.87-2.46,2.55l-0.57-0.39c1.68-2.4,2.94-3.57,4.32-3.57c0.66,0,0.96,0.84,0.96,1.77
		c0,0.3-0.09,0.69-0.15,1.02l-0.78,3.33c2.64-3.21,5.4-6.12,7.02-6.12c0.51,0,1.23,1.14,1.23,2.04c0,0.54-0.12,1.23-0.42,2.31
		l-1.47,5.49c-0.09,0.33-0.18,0.99-0.18,1.2c0,0.48,0.03,0.72,0.39,0.72c0.33,0,1.41-1.08,2.55-2.43l0.54,0.45
		C100.313,20.039,98.723,21.569,97.163,21.569z"/>
	<path fill="#FFFFFF" d="M115.913,10.02h-3.06c0.33,0.78,0.54,1.59,0.54,1.95c0,2.22-1.08,3.899-3.48,5.22
		c-1.62,0.9-2.76,1.26-2.76,2.19c0,0.69,0.45,1.26,1.89,1.979l1.62,0.81c1.65,0.81,2.22,1.71,2.22,3c0,1.62-2.52,3.9-7.02,3.9
		c-4.08,0-5.43-1.8-5.43-2.79c0-1.53,1.41-2.52,5.52-4.2c-0.54-0.69-0.72-1.2-0.72-1.8c0-0.33,0.84-1.17,1.5-1.92
		c-1.86-0.9-2.91-2.04-2.91-4.14c0-1.56,0.93-3.209,2.4-4.38c1.29-1.05,2.64-1.8,4.11-1.8c0.54,0,1.44,0.36,1.83,0.78h4.11
		L115.913,10.02z M109.433,24.029l-3-1.62c-2.61,1.2-3.69,2.61-3.69,3.78c0,0.78,1.23,2.16,3.6,2.16c2.76,0,4.68-1.68,4.68-2.46
		C111.023,25.019,110.603,24.809,109.433,24.029z M109.193,9c-1.17,0-3.06,2.43-3.06,5.31c0,1.71,0.78,2.88,1.86,2.88
		c1.38,0,3.18-2.46,3.18-5.34C111.173,10.109,110.273,9,109.193,9z"/>
	<path fill="#FFFFFF" d="M125.783,17.789c-0.06,0.27-0.15,0.99-0.15,1.2c0,0.45,0.12,0.84,0.45,0.84c0.33,0,1.38-1.02,2.52-2.4
		l0.54,0.45c-1.77,2.16-3.39,3.69-4.95,3.69c-0.66,0-0.87-0.93-0.87-1.98c0-0.54,0.18-1.53,0.36-2.37l2.73-13.41
		c0.12-0.54,0.18-0.9,0.18-1.2c0-0.6-0.27-0.81-1.11-0.81c-0.27,0-0.72,0.09-1.11,0.12l0.15-0.69l4.38-1.14h0.48L125.783,17.789z"/>
	<path fill="#FFFFFF" d="M132.652,15.389c-0.03,0.36-0.06,0.84-0.06,1.2c0,2.13,0.81,3.48,2.189,3.48c0.99,0,2.22-0.96,3.66-2.49
		l0.48,0.48c-1.95,2.34-4.05,3.57-5.55,3.57c-1.89,0-3.09-1.92-3.09-4.62c0-2.31,1.02-4.59,2.49-6.27c1.35-1.56,2.91-2.58,4.47-2.58
		c1.74,0,2.49,1.14,2.49,2.34C139.732,12.209,137.393,14.1,132.652,15.389z M135.413,9.359c-1.17,0.78-2.28,2.82-2.7,5.28
		c2.46-0.66,3.81-1.62,4.74-2.459c0.06-0.15,0.12-0.39,0.12-0.54C137.572,10.41,137.333,9.359,135.413,9.359z"/>
	<path fill="#FFFFFF" d="M148.462,21.569c-0.66,0-0.93-0.93-0.93-1.98l0.81-3.48c-2.46,3-4.92,5.46-6.54,5.46
		c-0.51,0-1.44-0.87-1.44-3.21c0-2.43,0.87-4.77,2.67-6.6c2.25-2.31,5.129-3.33,8.189-3.54h0.9l-2.1,9.87
		c-0.06,0.3-0.12,0.87-0.12,1.08c0,0.39,0,0.69,0.33,0.69c0.36,0,1.44-1.02,2.58-2.37l0.54,0.45
		C151.612,20.039,150.022,21.569,148.462,21.569z M148.342,10.109c-1.2,0-2.52,0.24-2.97,0.6c-1.47,1.17-2.67,3.36-2.67,6.81
		c0,1.8,0.45,2.31,0.78,2.31c0.54,0,2.85-2.28,5.01-4.95l0.99-4.65C149.122,10.14,148.672,10.109,148.342,10.109z"/>
	<path fill="#FFFFFF" d="M163.552,18.089c-0.06,0.36-0.12,0.81-0.12,1.05c0,0.36,0,0.81,0.33,0.81c0.24,0,1.44-1.11,2.58-2.46
		l0.54,0.45c-1.74,2.1-3.33,3.63-4.89,3.63c-0.66,0-0.9-0.93-0.9-1.98l0.75-3.33c-2.46,2.94-5.01,5.31-6.629,5.31
		c-0.51,0-1.44-0.87-1.44-3.21c0-2.43,0.87-5.13,2.67-6.96c1.92-1.95,4.5-2.97,7.049-3.45l0.78-4.14c0.09-0.51,0.18-0.9,0.18-1.2
		c0-0.6-0.3-0.81-1.14-0.81c-0.45,0-0.87,0.12-1.29,0.18l0.15-0.69l4.59-1.2h0.48L163.552,18.089z M161.902,9.87
		c-1.2,0-2.7,0.27-3.12,0.6c-1.47,1.17-2.67,3.6-2.67,7.049c0,1.77,0.45,2.31,0.78,2.31c0.42,0,2.94-2.13,5.1-4.8l1.11-5.04
		C162.742,9.899,162.232,9.87,161.902,9.87z"/>
	<path fill="#FFFFFF" d="M170.182,15.389c-0.03,0.36-0.06,0.84-0.06,1.2c0,2.13,0.81,3.48,2.189,3.48c0.99,0,2.22-0.96,3.66-2.49
		l0.48,0.48c-1.95,2.34-4.05,3.57-5.55,3.57c-1.89,0-3.09-1.92-3.09-4.62c0-2.31,1.02-4.59,2.49-6.27c1.35-1.56,2.91-2.58,4.47-2.58
		c1.74,0,2.49,1.14,2.49,2.34C177.262,12.209,174.922,14.1,170.182,15.389z M172.942,9.359c-1.17,0.78-2.28,2.82-2.7,5.28
		c2.46-0.66,3.81-1.62,4.74-2.459c0.06-0.15,0.12-0.39,0.12-0.54C175.102,10.41,174.862,9.359,172.942,9.359z"/>
	<path fill="#FFFFFF" d="M187.671,11.22h-0.3c-0.84-0.54-1.08-0.66-1.86-0.66c-0.78,0-2.7,3.24-2.88,4.17l-1.29,6.6h-2.22
		l1.92-9.689c0.09-0.51,0.21-1.65,0.21-1.77c0-0.09-0.06-0.3-0.12-0.3c-0.39,0-1.23,0.87-2.43,2.55l-0.57-0.39
		c1.68-2.4,2.91-3.57,4.29-3.57c0.66,0,0.93,0.87,0.93,1.8c0,0.3-0.06,0.69-0.12,1.02l-0.24,1.59c1.59-2.79,3.27-4.02,4.32-4.41
		c0.75,0,1.44,0.36,2.07,0.69L187.671,11.22z"/>
	<path fill="#FFFFFF" d="M195.921,11.279c-0.72-0.87-1.62-1.74-2.91-1.74c-0.09,0-0.18,0-0.27,0.03c-0.24,0.18-0.75,0.99-0.75,1.71
		c0,0.45,0.18,1.08,0.54,1.53c0.69,0.87,1.5,1.59,2.16,2.28c0.54,0.57,1.14,1.38,1.14,2.25c0,2.1-2.25,4.32-5.069,4.32
		c-1.95,0-3-1.35-3-2.01c0-0.48,0.93-1.23,1.44-1.47c0.51,0.81,1.65,2.19,3.51,2.19c0.18,0,0.39-0.03,0.6-0.09
		c0.33-0.18,0.9-0.9,0.9-1.59c0-0.96-1.17-1.86-2.28-3.03c-1.11-1.17-1.86-1.98-1.86-3.09c0-1.95,2.61-4.41,4.74-4.41
		c1.62,0,2.58,0.93,2.58,1.62C197.391,10.229,196.461,11.01,195.921,11.279z"/>
	<path fill="#FFFFFF" d="M217.071,3.12c-0.84-0.84-1.89-1.59-3.3-1.68c-1.77,0.15-2.61,1.56-3.6,7.08h3.72l-0.36,1.26h-3.57
		l-1.71,10.709c-0.24,1.44-0.66,2.91-1.2,3.84c-1.59,2.7-3.54,4.709-6.57,4.709c-1.47,0-2.25-0.84-2.25-1.5
		c0-0.54,0.84-1.44,1.44-1.65c0.81,0.72,1.8,1.65,3.15,1.74c1.5-0.09,2.4-2.67,3.18-7.23l1.77-10.649h-2.49l0.12-0.63l2.49-0.57
		c0.3-1.47,0.75-2.91,1.32-3.84c1.59-2.61,3.75-4.71,6.96-4.71c1.53,0,2.43,0.93,2.43,1.53C218.601,2.07,217.671,2.88,217.071,3.12z
		"/>
	<path fill="#FFFFFF" d="M221.721,18.179c-2.04,2.49-4.17,3.48-5.28,3.48c-1.65,0-3.42-1.89-3.42-5.22c0-1.56,0.6-3.3,1.83-4.83
		c1.89-2.34,4.26-3.45,5.28-3.45c1.71,0,3.42,1.89,3.42,5.22C223.551,14.939,222.951,16.679,221.721,18.179z M218.931,9.419
		c-1.26,0-3.57,2.64-3.57,6.75c0,2.88,1.08,4.26,2.31,4.26c1.35,0,3.54-2.7,3.54-6.9C221.211,10.859,220.131,9.419,218.931,9.419z"
		/>
	<path fill="#FFFFFF" d="M234.5,11.22h-0.3c-0.84-0.54-1.08-0.66-1.86-0.66c-0.78,0-2.7,3.24-2.88,4.17l-1.29,6.6h-2.22l1.92-9.689
		c0.09-0.51,0.21-1.65,0.21-1.77c0-0.09-0.06-0.3-0.12-0.3c-0.39,0-1.23,0.87-2.43,2.55l-0.57-0.39c1.68-2.4,2.91-3.57,4.29-3.57
		c0.66,0,0.93,0.87,0.93,1.8c0,0.3-0.06,0.69-0.12,1.02l-0.24,1.59c1.59-2.79,3.27-4.02,4.32-4.41c0.75,0,1.44,0.36,2.07,0.69
		L234.5,11.22z"/>
	<path fill="#FFFFFF" d="M252.38,18.269c-1.74,2.22-3.66,3.39-5.52,3.39c-0.66,0-2.97-0.39-3.9-1.83l3.27-16.02
		c0.12-0.54,0.18-0.9,0.18-1.2c0-0.6-0.27-0.81-1.11-0.81c-0.27,0-0.72,0.09-1.11,0.12l0.15-0.69l4.38-1.14h0.48l-2.61,12.78
		c2.73-3.12,5.04-4.71,5.85-4.71c0.87,0,2.04,2.04,2.04,4.77C254.48,14.699,253.76,16.529,252.38,18.269z M250.82,10.02
		c-0.42,0-2.19,1.5-4.5,4.17l-0.99,4.92c1.23,1.11,2.91,1.2,3.81,1.2c1.47-1.02,2.94-4.08,2.94-7.62
		C252.08,10.83,251.54,10.02,250.82,10.02z"/>
	<path fill="#FFFFFF" d="M265.25,21.569c-0.66,0-0.9-0.93-0.9-1.98c0-0.75,0.96-4.29,0.96-4.29c-2.64,3.39-5.43,6.27-7.049,6.27
		c-0.51,0-1.29-1.14-1.29-2.04c0-0.54,0.15-1.23,0.45-2.31l1.44-5.49c0.15-0.54,0.42-1.65,0.42-1.77s0.06-0.39-0.09-0.39
		c-0.39,0-1.26,0.87-2.46,2.55l-0.57-0.39c1.68-2.4,2.97-3.57,4.35-3.57c0.66,0,0.93,0.84,0.93,1.8c0,0.3-0.06,0.6-0.12,0.9
		c-0.81,3.18-1.71,6.6-1.92,7.83c0,0.81,0.18,1.14,0.51,1.14c0.63,0,3.18-2.7,5.549-5.729l1.2-5.64h2.25l-2.1,9.63
		c-0.06,0.36-0.15,0.84-0.15,1.05c0,0.45,0.06,0.78,0.39,0.78c0.33,0,1.41-1.08,2.55-2.43l0.54,0.45
		C268.4,20.039,266.81,21.569,265.25,21.569z"/>
	<path fill="#FFFFFF" d="M278.09,11.279c-0.72-0.87-1.62-1.74-2.91-1.74c-0.09,0-0.18,0-0.27,0.03c-0.24,0.18-0.75,0.99-0.75,1.71
		c0,0.45,0.18,1.08,0.54,1.53c0.689,0.87,1.5,1.59,2.159,2.28c0.54,0.57,1.141,1.38,1.141,2.25c0,2.1-2.25,4.32-5.07,4.32
		c-1.95,0-3-1.35-3-2.01c0-0.48,0.93-1.23,1.44-1.47c0.51,0.81,1.65,2.19,3.51,2.19c0.18,0,0.39-0.03,0.6-0.09
		c0.33-0.18,0.9-0.9,0.9-1.59c0-0.96-1.17-1.86-2.28-3.03c-1.11-1.17-1.86-1.98-1.86-3.09c0-1.95,2.61-4.41,4.74-4.41
		c1.62,0,2.58,0.93,2.58,1.62C279.56,10.229,278.63,11.01,278.09,11.279z"/>
	<path fill="#FFFFFF" d="M282.29,21.569c-0.66,0-0.9-0.93-0.9-1.98c0-0.54,0.24-1.59,0.42-2.52l1.351-5.43
		c0.149-0.66,0.359-1.65,0.359-1.77c0-0.09,0.061-0.3-0.09-0.3c-0.39,0-1.26,0.87-2.46,2.55l-0.57-0.39c1.681-2.4,3-3.57,4.38-3.57
		c0.66,0,0.9,0.84,0.9,1.77c0,0.3-0.03,0.69-0.09,1.02l-1.74,6.959c-0.06,0.24-0.15,0.78-0.15,0.99c0,0.45,0.15,0.93,0.48,0.93
		c0.3,0,1.32-0.99,2.46-2.34l0.54,0.45C285.439,20.039,283.85,21.569,282.29,21.569z M285.649,3.51c-0.93,0-1.529-0.75-1.529-1.44
		c0-0.72,0.6-1.5,1.529-1.5c0.9,0,1.5,0.78,1.5,1.5C287.149,2.76,286.55,3.51,285.649,3.51z"/>
	<path fill="#FFFFFF" d="M297.499,21.569c-0.659,0-0.84-0.96-0.84-2.01c0-0.54,0.21-1.44,0.45-2.37c0,0,1.29-5.07,1.5-6.3
		c0-0.78-0.06-0.96-0.51-0.96c-0.57,0-3.271,2.79-5.64,5.669l-1.11,5.73h-2.22l1.979-9.689c0.091-0.51,0.391-1.65,0.391-1.77
		c0-0.09-0.03-0.3-0.09-0.3c-0.391,0-1.261,0.87-2.46,2.55l-0.57-0.39c1.68-2.4,2.939-3.57,4.319-3.57c0.66,0,0.96,0.84,0.96,1.77
		c0,0.3-0.09,0.69-0.149,1.02l-0.78,3.33c2.64-3.21,5.4-6.12,7.02-6.12c0.511,0,1.23,1.14,1.23,2.04c0,0.54-0.12,1.23-0.42,2.31
		l-1.47,5.49c-0.091,0.33-0.181,0.99-0.181,1.2c0,0.48,0.03,0.72,0.391,0.72c0.33,0,1.409-1.08,2.55-2.43l0.54,0.45
		C300.649,20.039,299.06,21.569,297.499,21.569z"/>
	<path fill="#FFFFFF" d="M306.02,15.389c-0.03,0.36-0.06,0.84-0.06,1.2c0,2.13,0.81,3.48,2.189,3.48c0.99,0,2.22-0.96,3.66-2.49
		l0.479,0.48c-1.949,2.34-4.05,3.57-5.55,3.57c-1.89,0-3.09-1.92-3.09-4.62c0-2.31,1.021-4.59,2.49-6.27
		c1.35-1.56,2.91-2.58,4.47-2.58c1.74,0,2.49,1.14,2.49,2.34C313.1,12.209,310.76,14.1,306.02,15.389z M308.779,9.359
		c-1.17,0.78-2.279,2.82-2.699,5.28c2.46-0.66,3.81-1.62,4.739-2.459c0.061-0.15,0.12-0.39,0.12-0.54
		C310.939,10.41,310.699,9.359,308.779,9.359z"/>
	<path fill="#FFFFFF" d="M321.139,11.279c-0.72-0.87-1.62-1.74-2.91-1.74c-0.09,0-0.18,0-0.27,0.03c-0.24,0.18-0.75,0.99-0.75,1.71
		c0,0.45,0.18,1.08,0.54,1.53c0.689,0.87,1.5,1.59,2.159,2.28c0.54,0.57,1.141,1.38,1.141,2.25c0,2.1-2.25,4.32-5.07,4.32
		c-1.949,0-3-1.35-3-2.01c0-0.48,0.931-1.23,1.44-1.47c0.51,0.81,1.649,2.19,3.51,2.19c0.18,0,0.39-0.03,0.6-0.09
		c0.33-0.18,0.9-0.9,0.9-1.59c0-0.96-1.17-1.86-2.28-3.03c-1.109-1.17-1.859-1.98-1.859-3.09c0-1.95,2.609-4.41,4.739-4.41
		c1.62,0,2.58,0.93,2.58,1.62C322.608,10.229,321.679,11.01,321.139,11.279z"/>
	<path fill="#FFFFFF" d="M330.438,11.279c-0.72-0.87-1.62-1.74-2.91-1.74c-0.09,0-0.18,0-0.27,0.03c-0.24,0.18-0.75,0.99-0.75,1.71
		c0,0.45,0.18,1.08,0.54,1.53c0.689,0.87,1.5,1.59,2.159,2.28c0.54,0.57,1.141,1.38,1.141,2.25c0,2.1-2.25,4.32-5.07,4.32
		c-1.949,0-3-1.35-3-2.01c0-0.48,0.931-1.23,1.44-1.47c0.51,0.81,1.649,2.19,3.51,2.19c0.18,0,0.39-0.03,0.6-0.09
		c0.33-0.18,0.9-0.9,0.9-1.59c0-0.96-1.17-1.86-2.28-3.03c-1.109-1.17-1.859-1.98-1.859-3.09c0-1.95,2.609-4.41,4.739-4.41
		c1.62,0,2.58,0.93,2.58,1.62C331.908,10.229,330.979,11.01,330.438,11.279z"/>
	<path fill="#FFFFFF" d="M347.328,21.569c-0.659,0-0.93-0.93-0.93-1.98l0.811-3.48c-2.46,3-4.92,5.46-6.54,5.46
		c-0.51,0-1.44-0.87-1.44-3.21c0-2.43,0.87-4.77,2.67-6.6c2.25-2.31,5.13-3.33,8.19-3.54h0.899l-2.1,9.87
		c-0.061,0.3-0.12,0.87-0.12,1.08c0,0.39,0,0.69,0.33,0.69c0.359,0,1.439-1.02,2.58-2.37l0.54,0.45
		C350.479,20.039,348.889,21.569,347.328,21.569z M347.209,10.109c-1.2,0-2.521,0.24-2.971,0.6c-1.47,1.17-2.67,3.36-2.67,6.81
		c0,1.8,0.45,2.31,0.78,2.31c0.54,0,2.85-2.28,5.01-4.95l0.99-4.65C347.988,10.14,347.538,10.109,347.209,10.109z"/>
	<path fill="#FFFFFF" d="M362.118,21.569c-0.659,0-0.84-0.96-0.84-2.01c0-0.54,0.21-1.44,0.45-2.37c0,0,1.29-5.07,1.5-6.3
		c0-0.78-0.06-0.96-0.51-0.96c-0.57,0-3.271,2.79-5.64,5.669l-1.11,5.73h-2.22l1.979-9.689c0.091-0.51,0.391-1.65,0.391-1.77
		c0-0.09-0.03-0.3-0.09-0.3c-0.391,0-1.261,0.87-2.46,2.55l-0.57-0.39c1.68-2.4,2.939-3.57,4.319-3.57c0.66,0,0.96,0.84,0.96,1.77
		c0,0.3-0.09,0.69-0.149,1.02l-0.78,3.33c2.64-3.21,5.4-6.12,7.02-6.12c0.511,0,1.23,1.14,1.23,2.04c0,0.54-0.12,1.23-0.42,2.31
		l-1.47,5.49c-0.091,0.33-0.181,0.99-0.181,1.2c0,0.48,0.03,0.72,0.391,0.72c0.33,0,1.409-1.08,2.55-2.43l0.54,0.45
		C365.269,20.039,363.679,21.569,362.118,21.569z"/>
	<path fill="#FFFFFF" d="M377.628,18.089c-0.061,0.36-0.12,0.81-0.12,1.05c0,0.36,0,0.81,0.33,0.81c0.239,0,1.439-1.11,2.579-2.46
		l0.54,0.45c-1.739,2.1-3.329,3.63-4.89,3.63c-0.66,0-0.899-0.93-0.899-1.98l0.75-3.33c-2.46,2.94-5.01,5.31-6.63,5.31
		c-0.51,0-1.44-0.87-1.44-3.21c0-2.43,0.87-5.13,2.67-6.96c1.92-1.95,4.5-2.97,7.05-3.45l0.78-4.14c0.09-0.51,0.18-0.9,0.18-1.2
		c0-0.6-0.3-0.81-1.14-0.81c-0.45,0-0.87,0.12-1.29,0.18l0.15-0.69l4.59-1.2h0.479L377.628,18.089z M375.978,9.87
		c-1.2,0-2.7,0.27-3.12,0.6c-1.47,1.17-2.67,3.6-2.67,7.049c0,1.77,0.45,2.31,0.78,2.31c0.42,0,2.94-2.13,5.1-4.8l1.11-5.04
		C376.817,9.899,376.308,9.87,375.978,9.87z"/>
	<path fill="#FFFFFF" d="M395.777,11.279c-0.72-0.87-1.62-1.74-2.91-1.74c-0.09,0-0.18,0-0.27,0.03c-0.24,0.18-0.75,0.99-0.75,1.71
		c0,0.45,0.18,1.08,0.54,1.53c0.689,0.87,1.5,1.59,2.159,2.28c0.54,0.57,1.141,1.38,1.141,2.25c0,2.1-2.25,4.32-5.07,4.32
		c-1.949,0-3-1.35-3-2.01c0-0.48,0.931-1.23,1.44-1.47c0.51,0.81,1.649,2.19,3.51,2.19c0.18,0,0.39-0.03,0.6-0.09
		c0.33-0.18,0.9-0.9,0.9-1.59c0-0.96-1.17-1.86-2.28-3.03c-1.109-1.17-1.859-1.98-1.859-3.09c0-1.95,2.609-4.41,4.739-4.41
		c1.62,0,2.58,0.93,2.58,1.62C397.247,10.229,396.317,11.01,395.777,11.279z"/>
	<path fill="#FFFFFF" d="M406.758,18.179c-2.04,2.49-4.17,3.48-5.279,3.48c-1.65,0-3.42-1.89-3.42-5.22c0-1.56,0.6-3.3,1.83-4.83
		c1.89-2.34,4.26-3.45,5.279-3.45c1.71,0,3.42,1.89,3.42,5.22C408.588,14.939,407.988,16.679,406.758,18.179z M403.968,9.419
		c-1.26,0-3.569,2.64-3.569,6.75c0,2.88,1.08,4.26,2.31,4.26c1.35,0,3.54-2.7,3.54-6.9C406.248,10.859,405.168,9.419,403.968,9.419z
		"/>
	<path fill="#FFFFFF" d="M418.248,11.37c-0.811-0.87-1.561-1.65-3.09-1.74c-0.96,0.57-2.58,3.24-2.58,6.36
		c0,3.06,0.96,4.11,2.13,4.11c0.9,0,2.22-0.99,3.63-2.52l0.479,0.48c-1.949,2.34-4.05,3.57-5.489,3.57c-1.89,0-3.15-1.95-3.15-4.649
		c0-2.31,1.021-4.5,2.46-6.18c1.44-1.68,3.15-2.58,4.71-2.58c1.62,0,2.43,0.9,2.43,1.53C419.777,10.26,418.817,11.1,418.248,11.37z"
		/>
	<path fill="#FFFFFF" d="M422.268,21.569c-0.66,0-0.9-0.93-0.9-1.98c0-0.54,0.24-1.59,0.42-2.52l1.351-5.43
		c0.149-0.66,0.359-1.65,0.359-1.77c0-0.09,0.061-0.3-0.09-0.3c-0.39,0-1.26,0.87-2.46,2.55l-0.57-0.39c1.681-2.4,3-3.57,4.38-3.57
		c0.66,0,0.9,0.84,0.9,1.77c0,0.3-0.03,0.69-0.09,1.02l-1.74,6.959c-0.06,0.24-0.15,0.78-0.15,0.99c0,0.45,0.15,0.93,0.48,0.93
		c0.3,0,1.32-0.99,2.46-2.34l0.54,0.45C425.417,20.039,423.827,21.569,422.268,21.569z M425.627,3.51c-0.93,0-1.529-0.75-1.529-1.44
		c0-0.72,0.6-1.5,1.529-1.5c0.9,0,1.5,0.78,1.5,1.5C427.127,2.76,426.527,3.51,425.627,3.51z"/>
	<path fill="#FFFFFF" d="M430.787,15.389c-0.03,0.36-0.06,0.84-0.06,1.2c0,2.13,0.81,3.48,2.189,3.48c0.99,0,2.22-0.96,3.66-2.49
		l0.479,0.48c-1.949,2.34-4.05,3.57-5.55,3.57c-1.89,0-3.09-1.92-3.09-4.62c0-2.31,1.021-4.59,2.49-6.27
		c1.35-1.56,2.91-2.58,4.47-2.58c1.74,0,2.49,1.14,2.49,2.34C437.867,12.209,435.527,14.1,430.787,15.389z M433.547,9.359
		c-1.17,0.78-2.279,2.82-2.699,5.28c2.46-0.66,3.81-1.62,4.739-2.459c0.061-0.15,0.12-0.39,0.12-0.54
		C435.707,10.41,435.467,9.359,433.547,9.359z"/>
	<path fill="#FFFFFF" d="M446.627,9.81h-3.149l-1.5,7.979c-0.061,0.3-0.12,0.99-0.12,1.2c0,0.57,0.18,0.96,0.51,0.96
		s1.77-1.17,2.94-2.7l0.539,0.45c-1.89,2.43-3.659,3.87-5.22,3.87c-0.659,0-1.079-0.93-1.079-1.98c0-0.54,0.149-1.5,0.329-2.37
		l1.41-7.439l-1.89,0.06l0.15-0.63c2.039-0.93,3.149-1.83,4.439-3.9h0.66l-0.931,3.24h3.271L446.627,9.81z"/>
	<path fill="#FFFFFF" d="M457.487,11.97c-0.721,1.83-2.221,5.37-3.66,8.219c-2.4,4.71-5.43,8.85-8.79,8.85
		c-0.81,0-1.26-0.6-1.26-1.35c0.12-0.66,0.48-1.2,1.2-1.53c1.02,0.54,1.68,0.69,2.64,0.69c0.75-0.27,2.67-1.41,4.29-5.189
		c0-4.56-0.51-7.8-1.92-11.04c-0.18-0.42-0.45-0.84-1.11-0.84c-0.359,0-1.529,0.42-1.529,2.49v0.33h-0.66
		c-0.03-0.21-0.03-0.45-0.03-0.69c0-2.7,1.86-3.75,3.03-3.75s1.77,0.54,2.069,1.08c1.44,2.55,2.04,6.51,2.011,9.66
		c1.739-3.9,2.249-6.24,2.399-9.21c0.06-1.29,0.6-1.5,1.11-1.5c0.779,0,1.079,0.36,1.079,0.96
		C458.356,9.839,457.937,10.83,457.487,11.97z"/>
</g>
<g>
</g>
<g>
</g>
<g>
</g>
<g>
</g>
<g>
</g>
<g>
</g>
</svg>
