<?xml version="1.0" encoding="utf-8"?>
<!-- Generator: Adobe Illustrator 19.2.1, SVG Export Plug-In . SVG Version: 6.00 Build 0)  -->
<svg version="1.1" id="Layer_1" xmlns="http://www.w3.org/2000/svg" xmlns:xlink="http://www.w3.org/1999/xlink" x="0px" y="0px"
	 viewBox="0 0 288.3 142.3" style="enable-background:new 0 0 288.3 142.3;" xml:space="preserve">
<style type="text/css">
	.st0{clip-path:url(#SVGID_1_);fill:#002856;}
	.st1{clip-path:url(#SVGID_1_);}
	.st2{clip-path:url(#SVGID_1_);fill:#FFFFFF;}
	.st3{clip-path:url(#SVGID_1_);fill:#BB9905;}
	.st4{clip-path:url(#SVGID_1_);fill:#9CB6D3;}
</style>
<g>
	<defs>
		<rect id="SVGID_3_" width="288.3" height="142.3"/>
	</defs>
	<clipPath id="SVGID_1_">
		<use xlink:href="#SVGID_3_"  style="overflow:visible;"/>
	</clipPath>
	<path class="st0" d="M22.2,84.1l-6.8,11.5v7.7c0.8,1.9,2.8,2.1,4.7,2.2v1.1H6.8v-1.1c1.9-0.1,4.2-0.4,4.8-1.6v-8L4.7,84.2
		c-1.2-2-2.3-2.6-4.7-2.8v-1.1h11.6v1.1c-2.2,0.1-2.9,0.5-3.5,1l6.4,11.1l6.3-11.1c-0.7-0.5-1.5-0.9-3.7-1.1v-1.1H27v1.1
		C24.8,81.5,23.4,82.2,22.2,84.1 M35.7,106.9c-2.2,0-3.3-1.5-3.4-2.6c-1.4,1.5-3.2,2.6-4.9,2.6c-2.2,0-4.1-1.4-4.1-3.7
		c0-1.2,0.3-2.4,0.9-3.3l8.2-3v-3c0-1.9-0.9-3.6-2.7-3.6c-1.1,0-2.2,1.4-2.3,3.5l-3.7,0.6v-0.4c1.2-3.7,5.3-5.2,7.3-5.2
		c3.8,0,5.1,2,5.1,5l-0.1,8.7c0,1.7,0.9,2.1,1.7,2.1c0.7,0,1.3-0.4,2.1-1.2v1.2C38.8,105.6,37.2,106.9,35.7,106.9 M27.5,100.2
		c-0.2,0.7-0.3,1.2-0.3,2.1c0,1.2,0.7,2.5,2.1,2.5c1.2,0,1.9-0.4,3-1.3l0-5.6C31.3,98.4,28.6,99.6,27.5,100.2 M40.1,106.5v-0.9
		c1.9-0.1,2.4-0.5,2.7-1.2V83c0-1.4-0.2-2-3.1-2.2v-0.8l7.5-1.9l0.2,0.7l-1.2,1.5v24.1c0.4,0.8,1.2,1.1,2.9,1.2v0.9H40.1z
		 M59.1,106.8c-4.3,0-7.7-3.4-7.7-8.2c0-5.9,3.6-9.8,8.7-9.8c4.1,0,6.3,2.3,6.3,6v0.7l-11.1-0.1c-0.1,0.5-0.1,1.2-0.1,2.1
		c0,4.2,2.6,7,6.1,7c2.1,0,3.2-0.7,4.8-2.1l0.6,0.9C64.4,105.4,62.5,106.8,59.1,106.8 M59.5,90.1c-2.1,0-3.5,1.6-4,4.2l7.3-0.1
		C62.7,92.1,61.4,90.1,59.5,90.1"/>
	<path class="st0" d="M84.4,107c-2.2,0-4-0.6-5.1-1.1l-0.5-4.6h0.8c0.2,1.1,1.1,2.6,2.1,3.4c0.7,0.5,2,1.2,3.1,1.2
		c2.3,0,3.5-1.4,3.5-3c0-2-1.3-2.5-3.4-3.4c-4-1.7-5.4-2.7-5.4-5.4c0-3,3-5,7-5c1.9,0,3.3,0.5,4.3,0.9v4.5H90
		c-0.1-1.2-0.6-2.6-1.6-3.2c-0.4-0.2-1.5-1-2.7-1c-2.2,0-3.4,1.4-3.4,2.7c0,1.8,0.9,2.5,3.6,3.6c3.7,1.5,5.2,2.6,5.2,5.3
		C91.2,105,88.2,107,84.4,107"/>
	<path class="st0" d="M110.3,106c-2,0.6-2.7,1-5.9,1c-5.6,0-9.6-4-9.6-9.1c0-5.2,4.3-8.8,9.7-8.8c2.7,0,4.2,0.5,6.2,1v4.7h-0.7
		c-0.1-1.2-0.6-2.5-1.6-3.2c-0.5-0.4-1.7-1.3-4.1-1.3c-3.8,0-6,3.2-6,7c0,5,2.8,8.5,7.3,8.5c1.4,0,2.5-0.6,2.9-1
		c1.1-0.8,1.8-2.1,2-3.4l0.8,0.1L110.3,106z"/>
	<path class="st0" d="M126.1,106.6v-0.8c1.2,0,2.3-0.4,2.6-0.9v-6.4h-9.2v6.4c0.2,0.5,1.4,0.9,2.6,0.9v0.8H114v-0.8
		c1.2,0,2.4-0.4,2.6-0.9V91.1c-0.2-0.5-1.4-0.9-2.6-1v-0.7h8.2v0.7c-1.2,0.1-2.4,0.4-2.6,1v6h9.2v-6c-0.3-0.5-1.4-0.9-2.6-1v-0.7
		h8.3v0.7c-1.2,0.1-2.3,0.4-2.6,1v13.8c0.3,0.5,1.4,0.9,2.6,0.9v0.8H126.1z"/>
	<path class="st0" d="M145.5,107c-5.4,0-8.6-3.7-8.6-8.9c0-5.3,4.3-9,9.8-9c5.5,0,8.6,3.8,8.6,8.8C155.3,103.2,150.9,107,145.5,107
		 M145.2,90.2c-2.5,0-5,2.8-5,7c0,4.9,2.4,8.5,6.6,8.5c2.7,0,5.2-2.7,5.2-7C152,93.6,149.4,90.2,145.2,90.2"/>
	<path class="st0" d="M167.2,107c-5.4,0-8.6-3.7-8.6-8.9c0-5.3,4.3-9,9.8-9c5.5,0,8.6,3.8,8.6,8.8C177,103.2,172.7,107,167.2,107
		 M167,90.2c-2.5,0-5,2.8-5,7c0,4.9,2.4,8.5,6.6,8.5c2.7,0,5.2-2.7,5.2-7C173.7,93.6,171.1,90.2,167,90.2"/>
	<path class="st0" d="M179.1,106.6v-0.8c1.1-0.1,2.8-0.4,3.1-1.2V91.1c-0.2-0.5-1.4-0.8-2.6-0.9v-0.7h8.4v0.7
		c-1.2,0.1-2.6,0.4-2.8,1v14.2l4.9-0.1c1.8,0,3-1.8,3.1-4.1h0.7v5.5H179.1z"/>
	<path class="st0" d="M213.7,107c-5.4,0-8.6-3.7-8.6-8.9c0-5.3,4.3-9,9.8-9c5.5,0,8.6,3.8,8.6,8.8C223.5,103.2,219.1,107,213.7,107
		 M213.4,90.2c-2.5,0-5,2.8-5,7c0,4.9,2.4,8.5,6.6,8.5c2.7,0,5.2-2.7,5.2-7C220.2,93.6,217.6,90.2,213.4,90.2"/>
	<path class="st0" d="M238.6,93.7c-0.1-2.4-1.1-3-3.1-3h-3.8v6.7l3.7-0.1c1.8-0.1,2.5-0.1,2.8-2.1h0.7v5.8h-0.7
		c-0.2-2.2-0.9-2.2-2.8-2.2l-3.7,0v5.7c0.4,0.9,1.9,1.3,3.1,1.3v0.8h-9v-0.8c1.2-0.1,2.5-0.3,2.9-1.2V91.2c-0.2-0.6-1.5-1-2.7-1
		v-0.8h11.2c0.6,0,1.2,0,1.6-0.2h0.7v4.5H238.6z"/>
	<path class="st0" d="M93.4,141.9v-0.8c1.2-0.1,2.6-0.4,2.8-1l-0.5-9.9l0-2.8l-0.8,2.2l-5.4,12.3h-1.1l-4.7-12.8l-0.7-2.1l-0.1,1.9
		L82.1,140c0.2,0.5,1.5,1.1,2.7,1.2v0.8h-7v-0.8c1.2-0.1,2.4-0.6,2.7-1.2l0.7-9.7c0.1-1,0.2-2.9,0.2-3c0-0.2,0-0.6,0-0.9
		c-0.3-0.4-1.2-0.8-2.4-0.9v-0.7h6l0.9,2.6l3.9,10.6l4.4-10.4l1.2-2.8h5.4v0.7c-1.2,0.1-2.2,0.5-2.4,0.9v0.6c0,0.3,0.1,2.4,0.2,3.3
		l0.6,9.9c0.3,0.5,1.4,0.9,2.6,1v0.8H93.4z"/>
	<path class="st0" d="M114.8,141.9v-0.8c1.2-0.1,2.3-0.4,2.5-0.9l-1.8-5h-5.5l-1.7,4.7c0.3,0.6,1.3,1.2,2.5,1.2v0.8h-7v-0.8
		c1.2-0.1,2.1-0.3,2.6-1c0.7-1.8,1.6-3.9,2.4-6.1c1.1-3,2.3-6,2.9-7.8c0.3-0.8,0.3-1.1,0.4-1.7h3.3c0.1,0.8,0.1,1.3,0.4,2
		c0.9,2.9,1.7,5.1,2.4,7.4c0.6,1.9,1.3,3.7,2.2,6c0.3,0.8,1.4,1.1,2.6,1.2v0.8H114.8z M113.4,128.3L113,127h-0.1l-0.4,1.3l-1.9,5.5
		h4.6L113.4,128.3z"/>
	<path class="st0" d="M142.6,126.7V137c0,1.4,0.1,3.9,0.2,5.1h-1.6l-10.5-12.9l-1.2-1.7l0.1,1.6v6.2c0,1.5,0.1,3.5,0.2,4.7
		c0.2,0.5,1.8,1.1,3,1.2v0.8h-7.5v-0.8c1.2-0.1,2.4-0.6,2.6-1.2v-9.7c0-1.3,0-2.7-0.1-3.7c-0.3-0.6-1.4-1.1-2.6-1.1v-0.7h5.4
		l1.5,1.9l8.8,10.8v-6.2c0-1.5-0.1-3.8-0.1-4.6c-0.2-0.6-1.8-1.1-3-1.2v-0.7h7.4v0.7C144,125.5,142.9,126.1,142.6,126.7"/>
	<path class="st0" d="M157,141.9v-0.8c1.2-0.1,2.3-0.4,2.5-0.9l-1.8-5h-5.5l-1.7,4.7c0.3,0.6,1.3,1.2,2.5,1.2v0.8h-7v-0.8
		c1.2-0.1,2.1-0.3,2.6-1c0.7-1.8,1.6-3.9,2.4-6.1c1.1-3,2.3-6,2.9-7.8c0.3-0.8,0.3-1.1,0.4-1.7h3.3c0.1,0.8,0.1,1.3,0.4,2
		c0.9,2.9,1.7,5.1,2.4,7.4c0.6,1.9,1.3,3.7,2.2,6c0.3,0.8,1.4,1.1,2.6,1.2v0.8H157z M155.6,128.3l-0.4-1.3h-0.1l-0.4,1.3l-1.9,5.5
		h4.6L155.6,128.3z"/>
	<path class="st0" d="M182.1,136.1v4.5c-1.9,0.9-4.1,1.7-7.2,1.7c-5.3,0-8.8-4.1-8.8-9.1c0-5.3,4.4-8.8,9.7-8.8c2.6,0,4.1,0.5,6.1,1
		v4.6h-0.7c-0.1-0.7-0.4-2.1-1.3-2.9c-0.4-0.4-1.6-1.6-4.3-1.6c-4.1,0-6.1,3.6-6.1,7.4c0,4.8,2.3,8.3,6.3,8.3c1.5,0,3-0.9,3.4-1.4
		v-3.6c-0.3-0.6-1.9-0.9-3.1-1v-0.7h8.3v0.7C183.1,135.1,182.4,135.5,182.1,136.1"/>
	<path class="st0" d="M191.5,141.9l-6.1,0.1v-0.7c1.2-0.1,3.1-0.4,3.4-1.3v-13.5c-0.2-0.5-1.4-0.8-2.6-0.9v-0.7h11.2
		c0.7,0,1.2-0.1,1.6-0.2h0.6v4.5h-0.7c-0.1-2.4-1.1-3-3.1-3h-3.9v6.4h3.7c1.8,0,2.6,0,2.8-2h0.7v5.6h-0.7c-0.2-2.2-0.8-2.2-2.8-2.2
		h-3.7v5.8c0.1,0.4,0.2,0.7,0.7,0.9l4.3-0.1c1.8,0,3-0.8,3.1-3.1h0.7v4.5H191.5z"/>
	<path class="st0" d="M219.3,141.9v-0.8c1.2-0.1,2.6-0.4,2.8-1l-0.5-9.9l0-2.8l-0.8,2.2l-5.4,12.3h-1.1l-4.7-12.8l-0.7-2.1l-0.1,1.9
		L208,140c0.2,0.5,1.5,1.1,2.7,1.2v0.8h-7v-0.8c1.2-0.1,2.4-0.6,2.7-1.2l0.7-9.7c0.1-1,0.2-2.9,0.2-3c0-0.2,0-0.6,0-0.9
		c-0.3-0.4-1.2-0.8-2.4-0.9v-0.7h6l0.9,2.6l3.9,10.6l4.4-10.4l1.2-2.8h5.4v0.7c-1.2,0.1-2.2,0.5-2.4,0.9v0.6c0,0.3,0.1,2.4,0.2,3.3
		l0.6,9.9c0.3,0.5,1.4,0.9,2.6,1v0.8H219.3z"/>
	<path class="st0" d="M236.3,141.9l-6.1,0.1v-0.7c1.2-0.1,3.1-0.4,3.4-1.3v-13.5c-0.2-0.5-1.4-0.8-2.6-0.9v-0.7h11.2
		c0.7,0,1.2-0.1,1.6-0.2h0.6v4.5h-0.7c-0.1-2.4-1.1-3-3.1-3h-3.9v6.4h3.7c1.8,0,2.6,0,2.8-2h0.7v5.6h-0.7c-0.2-2.2-0.8-2.2-2.8-2.2
		h-3.7v5.8c0.1,0.4,0.2,0.7,0.7,0.9l4.3-0.1c1.8,0,3-0.8,3.1-3.1h0.7v4.5H236.3z"/>
	<path class="st0" d="M265.9,126.7V137c0,1.4,0.1,3.9,0.2,5.1h-1.6L254,129.2l-1.2-1.7l0.1,1.6v6.2c0,1.5,0.1,3.5,0.2,4.7
		c0.2,0.5,1.8,1.1,3,1.2v0.8h-7.5v-0.8c1.2-0.1,2.4-0.6,2.6-1.2v-9.7c0-1.3,0-2.7-0.1-3.7c-0.3-0.6-1.4-1.1-2.6-1.1v-0.7h5.4
		l1.5,1.9l8.8,10.8v-6.2c0-1.5-0.1-3.8-0.1-4.6c-0.2-0.6-1.8-1.1-3-1.2v-0.7h7.4v0.7C267.3,125.5,266.2,126.1,265.9,126.7"/>
	<path class="st0" d="M287.6,129.6c-0.1-2.3-1.3-3.5-3.2-3.5l-2.9,0v13.6c0.6,1.3,2.1,1.4,3.3,1.5v0.8H275v-0.8
		c1.2-0.1,3-0.3,3.4-1.1v-13.9l-2.9,0c-1.9,0-3.2,1.2-3.2,3.5h-0.7v-5.1h0.7c0.4,0.1,0.7,0.2,1.6,0.2H286c0.6,0,1.2-0.1,1.6-0.2h0.7
		v5.1H287.6z"/>
	<path class="st1" d="M98.3,1.1v17.6c0,0.2,0,0.3,0,0.5c0,9.2-0.2,31.4-25.1,43.8L73.1,63L72.9,63C48,50.7,47.8,28.4,47.8,19.2v-0.5
		V1.1H98.3 M99.4,0h-1.1H47.8h-1.1v1.1v17.6v0.5c0,8.8,0,32,25.8,44.8l0.1,0.1l0.5,0.2l0.5-0.2l0.1-0.1c25.8-12.8,25.8-36,25.8-44.8
		l0-0.3l0-0.2V1.1V0z"/>
	<path class="st2" d="M98.3,18.7c0,0.2,0,0.3,0,0.5c0,9.2-0.2,31.4-25.1,43.8L73.1,63L72.9,63C48,50.7,47.8,28.4,47.8,19.2v-0.5V1.1
		h50.5V18.7z"/>
	<path class="st0" d="M98.3,19.2c0,9.4-0.3,31.6-25.3,44c-25-12.4-25.3-34.6-25.3-43.9L98.3,19.2z"/>
	<rect x="47.8" y="1.1" class="st0" width="50.6" height="17.1"/>
	<path class="st1" d="M72.3,3.2c0.5,0.2,0.9,1,0.9,1s0.3-1,1.5-1.1c1.2-0.1,3.1,0.8,4.6-0.4L80.1,4l0.5-0.3l0.6,0.6l0,1.9
		c0.1,0.3,0.4,0.5,0.8,0.6c0,0,0.1-0.3,0-0.7c-0.3-0.7-0.2-1.3,0.2-1.7c0.1,0.1,0.6,0.3,0.9,0.2C82.8,5,82.8,5.5,82.9,6
		c0.2,0.6,0,1.3-0.3,1.7c-0.3,0.3-0.8,0.2-1.1,0l-0.2-0.1v4.9c0.1,0.2,0.2,0.5,0.4,0.6c0.5-0.2,0.1-0.9,0.2-1.3
		c0-0.3,0.2-0.5,0.3-0.7c0.2,0.1,0.8,0.2,0.9,0.2c0,0.2-0.3,0.6-0.2,1c0.2,1.3-0.4,1.9-0.7,2c-0.4,0.1-0.7-0.1-1-0.3v2.5l-6.8-0.1
		c0,0.3-0.1,0.9-1.2,0.9c-1.1,0-1.2-0.7-1.3-0.9c-2.4,0-7-0.1-7-0.1V14l0,0c-0.3,0.2-0.5,0.4-0.8,0.3c-0.4-0.1-0.6-0.6-0.6-1.2
		c-0.1-0.6,0.2-1.3-0.3-1.7c0.2-0.1,0.3-0.1,0.5-0.1c0.2,0,0.5-0.1,0.5-0.1c0.4,0.5,0.1,1.4,0.1,1.6c0,0.2,0.1,0.4,0.1,0.4
		c0.2-0.2,0.4-0.2,0.6-0.5l0-4.8l0,0C64.6,7.9,64.3,8.1,64,8c-0.3-0.1-0.6-0.5-0.8-1.2C63.1,6,63.4,5,63.1,4.6l0.9-0.3
		c0.4,0.7,0.2,1.6,0,2.3c0,0.1,0,0.2,0.1,0.3c0.2-0.1,0.5-0.3,0.7-0.4l0-2.2l0.6-0.5l0.6,0c0,0,0.6-0.8,0.7-1
		C68.5,3.5,70.6,2.7,72.3,3.2"/>
	<path class="st2" d="M72.4,3.6c0.4,0.2,0.6,0.6,0.6,1v10.5c-0.8-1.4-1.7-0.8-4.5-0.8c-0.6,0-1.4-0.3-1.6-0.6c0-3.5,0-10.7,0-10.7
		C68.6,4,70.7,2.9,72.4,3.6"/>
	<path class="st2" d="M79.2,13.9c0,0-0.2,0.4-1.6,0.4c-1.3,0.1-3.4-0.7-4.3,0.8V4.5c0.1-0.4,0.4-0.6,0.8-0.8c1.3-0.4,1.8,0.1,3.1,0
		c1.2-0.1,1.7-0.3,2-0.6L79.2,13.9z"/>
	<path class="st3" d="M80,15.2c-0.3-0.3-0.6-0.8-0.6-1.2l0-10.7L80,4.2L80,15.2z"/>
	<path class="st3" d="M66.7,11.4v2.5c-0.1,0.3-0.3,0.6-0.5,0.8l0-5.5c0-1.7,0-3.8,0.1-5.4l0.5-0.6L66.7,11.4z"/>
	<polygon class="st2" points="66.1,3.9 66,15.2 71.8,15.4 72,15.6 65.6,15.5 65.7,3.9 	"/>
	<polygon class="st2" points="65.5,6 65.4,15.5 65.2,15.7 65.2,4.3 65.5,4 	"/>
	<path class="st2" d="M80.5,4.1l-0.1,11.7c-2,0-6.2-0.1-6.2-0.1l0.1-0.2l5.8,0l0-11.2L80.5,4.1z"/>
	<path class="st2" d="M81.1,4.4c0,0-0.1,10.7-0.2,11.7l-0.3-0.4l0.2-11.7L81.1,4.4z"/>
	<path class="st2" d="M64,5.2c0,0.5-0.3,1.1,0,1.6C64,6.8,64,7,63.7,7c-0.2,0-0.3-0.3-0.3-0.5c-0.1-0.6,0.2-0.9,0.1-1.7L64,4.7
		L64,5.2z"/>
	<path class="st2" d="M82.7,4.8c-0.3,0.6,0.1,1.2,0,1.8c-0.1,0.1-0.3,0.1-0.5,0.1c0.2-0.4,0-0.6-0.2-1.3c-0.1-0.5,0.2-0.8,0.2-0.8
		S82.4,4.9,82.7,4.8"/>
	<path class="st2" d="M82.6,7c0,0.1-0.1,0.5-0.4,0.6c-0.3,0.1-0.8-0.2-1-0.3c0-0.2,0-0.5,0-0.7C81.5,6.9,82.1,7.2,82.6,7"/>
	<path class="st2" d="M64.9,7.4c-0.3,0.2-0.8,0.5-1.1,0.2c-0.1-0.1-0.2-0.2-0.2-0.4c0.5,0,1-0.2,1.4-0.5L64.9,7.4z"/>
	<path class="st2" d="M82.7,11.4c-0.3,0.9,0,1.4-0.2,1.7c-0.2,0.4-0.8,0.1-0.8,0.1s0.2,0,0.3-0.3c0.1-0.3-0.2-1.1,0.2-1.6L82.7,11.4
		z"/>
	<path class="st2" d="M64.1,11.7c0.1,0.4,0,0.8,0,1.2l0.1,0.3c-0.1,0.1-0.3,0-0.4,0c-0.3-0.5,0.2-1.1-0.2-1.6l0.4-0.1
		C63.9,11.4,64,11.6,64.1,11.7"/>
	<path class="st2" d="M82.5,13.5c-0.1,0.2-0.2,0.5-0.5,0.5c-0.3,0-0.7-0.1-0.9-0.4l0-0.6C81.5,13.3,82,13.7,82.5,13.5"/>
	<path class="st2" d="M64.9,13.6c-0.3,0.2-0.7,0.5-0.9,0.3c-0.2-0.1-0.3-0.3-0.3-0.5c0.4,0.1,0.9-0.3,1.2-0.5L64.9,13.6z"/>
	<path class="st3" d="M73,15.5c0.1,0.3,0,0.3,0,0.4c-0.5,0.1-0.8-0.3-1.1-0.7c0,0-3.9-0.2-5.7-0.2c0.2-0.3,0.6-0.6,0.6-1
		C68.3,15.3,72.2,13.5,73,15.5"/>
	<path class="st3" d="M79.8,15.2c-1.9,0.1-3.8,0-5.6,0.1c-0.2,0.3-0.5,0.7-0.9,0.6c0.5-1.7,2.1-1.3,4.3-1.3c1.2,0,1.6-0.5,1.6-0.5
		C79.3,14.5,79.6,15,79.8,15.2"/>
	<path class="st2" d="M72.1,15.8c0,0,0,0.1,0.1,0.1c-0.4,0.1-6.9,0-6.9,0l0.4-0.2L72.1,15.8z"/>
	<path class="st2" d="M80.4,15.8l0.3,0.3L74,15.9l0.1-0.1C74.1,15.8,78.4,15.8,80.4,15.8"/>
	<path class="st2" d="M73.2,16.3c0.3,0,0.6-0.1,0.8-0.3c0.2,0.3-0.1,0.7-0.8,0.7c-0.8,0-1.1-0.5-0.9-0.8
		C72.5,16.3,72.9,16.3,73.2,16.3"/>
	<path class="st1" d="M70.5,11.6c-0.2,0-0.4-0.1-0.7-0.1c-0.2,0-0.5,0-0.7,0.1c0-0.5,0.1-0.9,0.2-1.2c0.6,0.1,0.9,0.1,1,0.2
		C70.5,10.8,70.4,11.1,70.5,11.6 M70.8,10.8c0-0.8-0.4-0.9-1.1-0.9c-0.5,0-0.6-0.1-0.7-0.4h-0.1C69,9.7,68.9,9.8,68.9,10
		c0,0.2,0.1,0.3,0.3,0.4c-0.3,0.4-0.3,1-0.3,1.7c0.3,0,0.6-0.1,0.9-0.1c0.3,0,0.6,0,0.9,0.1C70.7,11.7,70.8,11.3,70.8,10.8"/>
	<path class="st1" d="M76.7,11.6c-0.2-0.1-0.4-0.1-0.7-0.1c-0.2,0-0.4,0-0.6,0.1c0,0,0-0.3,0-0.4c0-0.2,0.1-0.5,0.2-0.7
		c0.5,0,0.8,0,1,0.1C76.7,10.7,76.7,11,76.7,11.6 M77,10.7c0-0.7-0.3-0.8-0.6-0.8c-0.2,0-0.8,0-1.1-0.1c-0.1,0-0.1-0.2-0.1-0.4h-0.1
		c-0.1,0.2-0.2,0.3-0.2,0.5c0,0.2,0.1,0.4,0.3,0.5c-0.3,0.5-0.2,1-0.3,1.7c0.3,0,0.7-0.1,1-0.1c0.3,0,0.6,0,0.8,0.1
		C76.9,11.6,77,11.6,77,10.7"/>
	<path class="st1" d="M71.8,10.3c0-0.3-0.3-0.5-0.4-0.7V9.3l-0.1,0C71.3,9.4,71,9.7,71,9.8c0,0.1,0,0.3,0.2,0.4
		c0.1,0.1,0.2,0.2,0.2,0.3c0,0,0,0.2,0,0.3h0.1C71.6,10.7,71.8,10.5,71.8,10.3"/>
	<path class="st1" d="M78,10.2c0-0.3-0.4-0.3-0.4-0.6c0-0.1,0-0.2,0-0.3h-0.1c-0.1,0.2-0.3,0.4-0.3,0.6c0,0.1,0,0.3,0.2,0.4
		c0.1,0.1,0.2,0.2,0.2,0.2c0,0,0,0.3,0,0.4l0.1,0C77.9,10.6,78,10.3,78,10.2"/>
	<path class="st1" d="M75.4,7.9c-0.3-0.3,0-1.1-0.3-1.6c0-0.1-0.2-0.1-0.3-0.1h-0.6c-0.2,0-0.2-0.2-0.3-0.4h-0.1
		c-0.1,0.1-0.1,0.3-0.1,0.4c0,0.4,0.3,0.6,0.5,0.6c0.3,0,0.6-0.1,0.7,0.1c0,0.1,0.1,0.2,0.1,0.6c0,0.4,0,0.7,0,0.9H75
		C75.2,8.2,75.3,8,75.4,7.9"/>
	<path class="st1" d="M71.6,7.9c-0.3-0.3-0.1-1.6-0.3-1.7c-0.1-0.1-0.2-0.1-0.4-0.1c-0.2,0-0.3,0-0.5,0c-0.2,0-0.3-0.1-0.4-0.5h-0.1
		c0,0.2-0.1,0.3-0.1,0.4c0,0.3,0,0.5,0.3,0.6c-0.1,0.2-0.1,0.3-0.1,0.5c0,0.2,0,0.3,0,0.6c-0.3,0.1-0.3,0.1-0.4,0.2
		c-0.1,0.1-0.1,0.2-0.1,0.4c0.7,0,0.9-0.1,0.9-0.3c0-0.2-0.2-0.6-0.2-1c0-0.2,0.1-0.2,0.1-0.3c0.2,0,0.4-0.1,0.7,0
		c0.1,0.1,0.2,0.4,0.2,0.7c0,0.4,0,0.7,0,0.9h0.1C71.4,8.2,71.6,8,71.6,7.9"/>
	<path class="st1" d="M76.4,7.9L76.4,7.9c-0.1-0.1-0.1-0.1-0.1-0.2c-0.1-0.1-0.1-0.4-0.1-0.6c0-0.1,0-0.2,0.1-0.3
		c0.1-0.1,0.1-0.2,0.1-0.5c0-0.2-0.2-0.2-0.4-0.2c-0.2,0-0.3-0.1-0.3-0.2c0-0.1-0.1-0.2-0.1-0.2h-0.1c-0.1,0.2-0.1,0.3-0.1,0.5
		c0,0.4,0.1,0.6,0.6,0.6C76,7.1,76,7.4,76,7.8c0,0.2,0,0.3,0,0.5h0.1C76.2,8.2,76.3,8.1,76.4,7.9"/>
	<path class="st1" d="M69.7,6.8c0-0.4-0.3-0.4-0.6-0.6C69,6.2,68.8,6,68.8,5.6h-0.1c-0.2,0.2-0.3,0.4-0.4,0.6
		c-0.2,0-0.5-0.2-0.4-0.6h-0.1c-0.2,0.1-0.2,0.3-0.2,0.5c0,0.2,0.1,0.4,0.4,0.6c-0.1,0.2-0.4,0.5-0.4,0.7c0,0.2,0.1,0.5,0.1,0.6
		c0,0.1,0,0.2-0.1,0.3c0,0,0,0.1,0.1,0.1c0.1-0.2,0.3-0.3,0.3-0.7c0-0.2-0.1-0.3-0.1-0.5c0-0.2,0.2-0.5,0.4-0.7c0.4,0.2,1,0.3,1,0.8
		c0,0.1-0.1,0.4-0.2,0.5c-0.1,0.1-0.2,0.1-0.4,0.1h-0.5c-0.1,0.2-0.1,0.3-0.2,0.5h0.1c0.1,0,0.2,0,0.3,0c0.2,0,0.3,0,0.4,0
		c0.3,0,0.4-0.2,0.6-0.6C69.5,7.5,69.7,7.1,69.7,6.8"/>
	<path class="st1" d="M72.6,7.9L72.6,7.9c-0.1-0.1-0.1-0.1-0.1-0.2c-0.1-0.1-0.1-0.4-0.1-0.6c0-0.1,0-0.2,0-0.3
		c0-0.1,0.2-0.2,0.2-0.5c0-0.2-0.2-0.2-0.5-0.2c-0.1,0-0.2-0.1-0.3-0.2c0,0-0.1-0.2-0.1-0.2h-0.1c0,0.2-0.1,0.3-0.1,0.5
		c0,0.4,0.1,0.5,0.6,0.5c0,0.2-0.1,0.4-0.1,0.7c0,0.3,0,0.7-0.1,0.9h0.1C72.5,8.2,72.5,8.1,72.6,7.9"/>
	<path class="st1" d="M78.6,7.6c0-0.2-0.1-0.4-0.3-0.5c-0.1,0-0.2-0.2-0.1-0.1c0.2-0.1,0.4-0.3,0.4-0.6c0-0.1,0-0.2-0.1-0.3
		c-0.1,0-0.2-0.1-0.2-0.2c0-0.1,0-0.2,0-0.2l-0.1,0c-0.1,0.1-0.3,0.3-0.3,0.5c0,0.4,0.5,0.3,0.2,0.8c-0.5-0.2-1.1-0.5-1-1.2H77
		c-0.2,0.1-0.2,0.4-0.2,0.5c0,0.4,0.3,0.7,0.5,0.8c-0.1,0.1-0.2,0.1-0.2,0.2c-0.1,0.1-0.2,0.2-0.2,0.4c0,0.1,0,0.3,0,0.4l-0.2,0.1
		v0.1c0.3,0,0.8,0.1,0.8-0.3c0-0.1-0.2-0.3-0.2-0.4c0-0.2,0.1-0.3,0.2-0.4c0.4,0.2,0.9,0.4,0.9,0.8c0,0.1,0,0.2-0.1,0.3h0.1
		C78.5,8.1,78.6,7.8,78.6,7.6"/>
	<path class="st2" d="M84,46.3c1.2,1.2,3.2,1.2,4.4,0c1.2-1.2,1.2-3.2,0-4.4c-1.2-1.2-3.2-1.2-4.4,0C82.8,43.1,82.8,45.1,84,46.3"/>
	<path class="st2" d="M77.1,53.2c1.2,1.2,3.2,1.2,4.4,0c1.2-1.2,1.2-3.2,0-4.4c-1.2-1.2-3.2-1.2-4.4,0C75.9,50,75.9,52,77.1,53.2"/>
	<path class="st2" d="M64.5,48.8c-1.2,1.2-1.2,3.2,0,4.4c1.2,1.2,3.2,1.2,4.4,0c1.2-1.2,1.2-3.2,0-4.4
		C67.8,47.5,65.8,47.5,64.5,48.8"/>
	<path class="st2" d="M57.7,41.9c-1.2,1.2-1.2,3.2,0,4.4c1.2,1.2,3.2,1.2,4.4,0c1.2-1.2,1.2-3.2,0-4.4
		C60.9,40.6,58.9,40.6,57.7,41.9"/>
	<path class="st4" d="M64.5,26.8c1.2,1.2,3.2,1.2,4.4,0c1.2-1.2,1.2-3.2,0-4.4c-1.2-1.2-3.2-1.2-4.4,0
		C63.3,23.6,63.3,25.6,64.5,26.8"/>
	<path class="st4" d="M57.7,33.7c1.2,1.2,3.2,1.2,4.4,0c1.2-1.2,1.2-3.2,0-4.4c-1.2-1.2-3.2-1.2-4.4,0
		C56.4,30.5,56.4,32.5,57.7,33.7"/>
	<path class="st4" d="M84,29.3c-1.2,1.2-1.2,3.2,0,4.4c1.2,1.2,3.2,1.2,4.4,0c1.2-1.2,1.2-3.2,0-4.4C87.2,28.1,85.2,28.1,84,29.3"/>
	<path class="st4" d="M77.1,22.4c-1.2,1.2-1.2,3.2,0,4.4c1.2,1.2,3.2,1.2,4.4,0c1.2-1.2,1.2-3.2,0-4.4
		C80.3,21.2,78.3,21.2,77.1,22.4"/>
	<polygon class="st4" points="61.4,38 61.4,38 61.4,38 	"/>
	<polygon class="st4" points="61.8,38.3 73.1,49.6 84.3,38.3 	"/>
	<polygon class="st2" points="84.3,37.3 73.1,26 61.8,37.3 	"/>
</g>
</svg>
