<?xml version="1.0" encoding="utf-8"?>
<!-- Generator: Adobe Illustrator 22.0.1, SVG Export Plug-In . SVG Version: 6.00 Build 0)  -->
<svg version="1.1" id="Layer_1" xmlns="http://www.w3.org/2000/svg" xmlns:xlink="http://www.w3.org/1999/xlink" x="0px" y="0px"
	 viewBox="0 0 288.3 142.3" style="enable-background:new 0 0 288.3 142.3;" xml:space="preserve">
<style type="text/css">
	.st0{clip-path:url(#SVGID_2_);fill:#FFFFFF;}
	.st1{clip-path:url(#SVGID_4_);fill:#FFFFFF;}
	.st2{clip-path:url(#SVGID_6_);fill:#FFFFFF;}
	.st3{clip-path:url(#SVGID_8_);fill:#FFFFFF;}
	.st4{clip-path:url(#SVGID_10_);fill:#FFFFFF;}
	.st5{clip-path:url(#SVGID_12_);fill:#FFFFFF;}
	.st6{clip-path:url(#SVGID_14_);fill:#FFFFFF;}
	.st7{clip-path:url(#SVGID_16_);fill:#FFFFFF;}
	.st8{clip-path:url(#SVGID_18_);fill:#FFFFFF;}
	.st9{clip-path:url(#SVGID_20_);fill:#FFFFFF;}
	.st10{clip-path:url(#SVGID_22_);fill:#FFFFFF;}
	.st11{clip-path:url(#SVGID_24_);fill:#FFFFFF;}
	.st12{clip-path:url(#SVGID_26_);fill:#FFFFFF;}
	.st13{clip-path:url(#SVGID_28_);fill:#FFFFFF;}
	.st14{clip-path:url(#SVGID_30_);fill:#FFFFFF;}
	.st15{clip-path:url(#SVGID_32_);fill:#FFFFFF;}
	.st16{clip-path:url(#SVGID_34_);fill:#FFFFFF;}
	.st17{clip-path:url(#SVGID_36_);fill:#FFFFFF;}
	.st18{clip-path:url(#SVGID_38_);fill:#FFFFFF;}
	.st19{clip-path:url(#SVGID_40_);fill:#86B2D8;}
	.st20{clip-path:url(#SVGID_42_);fill:#FFFFFF;}
	.st21{clip-path:url(#SVGID_44_);fill:#002856;}
	.st22{clip-path:url(#SVGID_46_);fill:#002856;}
	.st23{clip-path:url(#SVGID_48_);}
	.st24{clip-path:url(#SVGID_50_);fill:#FFFFFF;}
	.st25{clip-path:url(#SVGID_52_);fill:#FFFFFF;}
	.st26{clip-path:url(#SVGID_54_);fill:#BB9905;}
	.st27{clip-path:url(#SVGID_56_);fill:#BB9905;}
	.st28{clip-path:url(#SVGID_58_);fill:#FFFFFF;}
	.st29{clip-path:url(#SVGID_60_);fill:#FFFFFF;}
	.st30{clip-path:url(#SVGID_62_);fill:#FFFFFF;}
	.st31{clip-path:url(#SVGID_64_);fill:#FFFFFF;}
	.st32{clip-path:url(#SVGID_66_);fill:#FFFFFF;}
	.st33{clip-path:url(#SVGID_68_);fill:#FFFFFF;}
	.st34{clip-path:url(#SVGID_70_);fill:#FFFFFF;}
	.st35{clip-path:url(#SVGID_72_);fill:#FFFFFF;}
	.st36{clip-path:url(#SVGID_74_);fill:#FFFFFF;}
	.st37{clip-path:url(#SVGID_76_);fill:#FFFFFF;}
	.st38{clip-path:url(#SVGID_78_);fill:#FFFFFF;}
	.st39{clip-path:url(#SVGID_80_);fill:#FFFFFF;}
	.st40{clip-path:url(#SVGID_82_);fill:#BB9905;}
	.st41{clip-path:url(#SVGID_84_);fill:#BB9905;}
	.st42{clip-path:url(#SVGID_86_);fill:#FFFFFF;}
	.st43{clip-path:url(#SVGID_88_);fill:#FFFFFF;}
	.st44{clip-path:url(#SVGID_90_);fill:#FFFFFF;}
	.st45{clip-path:url(#SVGID_92_);}
	.st46{clip-path:url(#SVGID_94_);}
	.st47{clip-path:url(#SVGID_96_);}
	.st48{clip-path:url(#SVGID_98_);}
	.st49{clip-path:url(#SVGID_100_);}
	.st50{clip-path:url(#SVGID_102_);}
	.st51{clip-path:url(#SVGID_104_);}
	.st52{clip-path:url(#SVGID_106_);}
	.st53{clip-path:url(#SVGID_108_);}
	.st54{clip-path:url(#SVGID_110_);}
	.st55{clip-path:url(#SVGID_112_);fill:#FFFFFF;}
	.st56{clip-path:url(#SVGID_114_);fill:#FFFFFF;}
	.st57{clip-path:url(#SVGID_116_);fill:#FFFFFF;}
	.st58{clip-path:url(#SVGID_118_);fill:#FFFFFF;}
	.st59{clip-path:url(#SVGID_120_);fill:#9CB6D3;}
	.st60{clip-path:url(#SVGID_122_);fill:#9CB6D3;}
	.st61{clip-path:url(#SVGID_124_);fill:#9CB6D3;}
	.st62{clip-path:url(#SVGID_126_);fill:#9CB6D3;}
	.st63{clip-path:url(#SVGID_128_);fill:#9CB6D3;}
	.st64{clip-path:url(#SVGID_130_);fill:#9CB6D3;}
	.st65{clip-path:url(#SVGID_132_);fill:#FFFFFF;}
</style>
<g>
	<g>
		<defs>
			<rect id="SVGID_1_" width="288.3" height="142.3"/>
		</defs>
		<clipPath id="SVGID_2_">
			<use xlink:href="#SVGID_1_"  style="overflow:visible;"/>
		</clipPath>
		<path class="st0" d="M22.2,84.1l-6.8,11.5v7.7c0.8,1.9,2.8,2.1,4.7,2.2v1.1H6.8v-1.1c1.9-0.1,4.2-0.4,4.8-1.6v-8L4.7,84.2
			c-1.2-2-2.3-2.6-4.7-2.8v-1.1h11.6v1.1c-2.2,0.1-2.9,0.5-3.5,1l6.4,11.1l6.3-11.1c-0.7-0.5-1.5-0.9-3.7-1.1v-1.1H27v1.1
			C24.8,81.5,23.4,82.2,22.2,84.1 M35.7,106.9c-2.2,0-3.3-1.5-3.4-2.6c-1.4,1.5-3.2,2.6-4.9,2.6c-2.2,0-4.1-1.4-4.1-3.7
			c0-1.2,0.3-2.4,0.9-3.3l8.2-3v-3c0-1.9-0.9-3.6-2.7-3.6c-1.1,0-2.2,1.4-2.3,3.5l-3.7,0.6V94c1.2-3.7,5.3-5.2,7.3-5.2
			c3.8,0,5.1,2,5.1,5l-0.1,8.7c0,1.7,0.9,2.1,1.7,2.1c0.7,0,1.3-0.4,2.1-1.2v1.2C38.8,105.6,37.2,106.9,35.7,106.9 M27.5,100.2
			c-0.2,0.7-0.3,1.2-0.3,2.1c0,1.2,0.7,2.5,2.1,2.5c1.2,0,1.9-0.4,3-1.3v-5.6C31.3,98.4,28.6,99.6,27.5,100.2 M40.1,106.5v-0.9
			c1.9-0.1,2.4-0.5,2.7-1.2V83c0-1.4-0.2-2-3.1-2.2V80l7.5-1.9l0.2,0.7l-1.2,1.5v24.1c0.4,0.8,1.2,1.1,2.9,1.2v0.9
			C49.1,106.5,40.1,106.5,40.1,106.5z M59.1,106.8c-4.3,0-7.7-3.4-7.7-8.2c0-5.9,3.6-9.8,8.7-9.8c4.1,0,6.3,2.3,6.3,6v0.7l-11.1-0.1
			c-0.1,0.5-0.1,1.2-0.1,2.1c0,4.2,2.6,7,6.1,7c2.1,0,3.2-0.7,4.8-2.1l0.6,0.9C64.4,105.4,62.5,106.8,59.1,106.8 M59.5,90.1
			c-2.1,0-3.5,1.6-4,4.2l7.3-0.1C62.7,92.1,61.4,90.1,59.5,90.1"/>
	</g>
	<g>
		<defs>
			<rect id="SVGID_3_" width="288.3" height="142.3"/>
		</defs>
		<clipPath id="SVGID_4_">
			<use xlink:href="#SVGID_3_"  style="overflow:visible;"/>
		</clipPath>
		<path class="st1" d="M84.4,107c-2.2,0-4-0.6-5.1-1.1l-0.5-4.6h0.8c0.2,1.1,1.1,2.6,2.1,3.4c0.7,0.5,2,1.2,3.1,1.2
			c2.3,0,3.5-1.4,3.5-3c0-2-1.3-2.5-3.4-3.4c-4-1.7-5.4-2.7-5.4-5.4c0-3,3-5,7-5c1.9,0,3.3,0.5,4.3,0.9v4.5H90
			c-0.1-1.2-0.6-2.6-1.6-3.2c-0.4-0.2-1.5-1-2.7-1c-2.2,0-3.4,1.4-3.4,2.7c0,1.8,0.9,2.5,3.6,3.6c3.7,1.5,5.2,2.6,5.2,5.3
			C91.2,105,88.2,107,84.4,107"/>
	</g>
	<g>
		<defs>
			<rect id="SVGID_5_" width="288.3" height="142.3"/>
		</defs>
		<clipPath id="SVGID_6_">
			<use xlink:href="#SVGID_5_"  style="overflow:visible;"/>
		</clipPath>
		<path class="st2" d="M110.3,106c-2,0.6-2.7,1-5.9,1c-5.6,0-9.6-4-9.6-9.1c0-5.2,4.3-8.8,9.7-8.8c2.7,0,4.2,0.5,6.2,1v4.7H110
			c-0.1-1.2-0.6-2.5-1.6-3.2c-0.5-0.4-1.7-1.3-4.1-1.3c-3.8,0-6,3.2-6,7c0,5,2.8,8.5,7.3,8.5c1.4,0,2.5-0.6,2.9-1
			c1.1-0.8,1.8-2.1,2-3.4l0.8,0.1L110.3,106z"/>
	</g>
	<g>
		<defs>
			<rect id="SVGID_7_" width="288.3" height="142.3"/>
		</defs>
		<clipPath id="SVGID_8_">
			<use xlink:href="#SVGID_7_"  style="overflow:visible;"/>
		</clipPath>
		<path class="st3" d="M126.1,106.6v-0.8c1.2,0,2.3-0.4,2.6-0.9v-6.4h-9.2v6.4c0.2,0.5,1.4,0.9,2.6,0.9v0.8H114v-0.8
			c1.2,0,2.4-0.4,2.6-0.9V91.1c-0.2-0.5-1.4-0.9-2.6-1v-0.7h8.2v0.7c-1.2,0.1-2.4,0.4-2.6,1v6h9.2v-6c-0.3-0.5-1.4-0.9-2.6-1v-0.7
			h8.3v0.7c-1.2,0.1-2.3,0.4-2.6,1v13.8c0.3,0.5,1.4,0.9,2.6,0.9v0.8C134.5,106.6,126.1,106.6,126.1,106.6z"/>
	</g>
	<g>
		<defs>
			<rect id="SVGID_9_" width="288.3" height="142.3"/>
		</defs>
		<clipPath id="SVGID_10_">
			<use xlink:href="#SVGID_9_"  style="overflow:visible;"/>
		</clipPath>
		<path class="st4" d="M145.5,107c-5.4,0-8.6-3.7-8.6-8.9c0-5.3,4.3-9,9.8-9s8.6,3.8,8.6,8.8C155.3,103.2,150.9,107,145.5,107
			 M145.2,90.2c-2.5,0-5,2.8-5,7c0,4.9,2.4,8.5,6.6,8.5c2.7,0,5.2-2.7,5.2-7C152,93.6,149.4,90.2,145.2,90.2"/>
	</g>
	<g>
		<defs>
			<rect id="SVGID_11_" width="288.3" height="142.3"/>
		</defs>
		<clipPath id="SVGID_12_">
			<use xlink:href="#SVGID_11_"  style="overflow:visible;"/>
		</clipPath>
		<path class="st5" d="M167.2,107c-5.4,0-8.6-3.7-8.6-8.9c0-5.3,4.3-9,9.8-9s8.6,3.8,8.6,8.8C177,103.2,172.7,107,167.2,107
			 M167,90.2c-2.5,0-5,2.8-5,7c0,4.9,2.4,8.5,6.6,8.5c2.7,0,5.2-2.7,5.2-7C173.7,93.6,171.1,90.2,167,90.2"/>
	</g>
	<g>
		<defs>
			<rect id="SVGID_13_" width="288.3" height="142.3"/>
		</defs>
		<clipPath id="SVGID_14_">
			<use xlink:href="#SVGID_13_"  style="overflow:visible;"/>
		</clipPath>
		<path class="st6" d="M179.1,106.6v-0.8c1.1-0.1,2.8-0.4,3.1-1.2V91.1c-0.2-0.5-1.4-0.8-2.6-0.9v-0.7h8.4v0.7
			c-1.2,0.1-2.6,0.4-2.8,1v14.2l4.9-0.1c1.8,0,3-1.8,3.1-4.1h0.7v5.5L179.1,106.6L179.1,106.6z"/>
	</g>
	<g>
		<defs>
			<rect id="SVGID_15_" width="288.3" height="142.3"/>
		</defs>
		<clipPath id="SVGID_16_">
			<use xlink:href="#SVGID_15_"  style="overflow:visible;"/>
		</clipPath>
		<path class="st7" d="M213.7,107c-5.4,0-8.6-3.7-8.6-8.9c0-5.3,4.3-9,9.8-9s8.6,3.8,8.6,8.8C223.5,103.2,219.1,107,213.7,107
			 M213.4,90.2c-2.5,0-5,2.8-5,7c0,4.9,2.4,8.5,6.6,8.5c2.7,0,5.2-2.7,5.2-7C220.2,93.6,217.6,90.2,213.4,90.2"/>
	</g>
	<g>
		<defs>
			<rect id="SVGID_17_" width="288.3" height="142.3"/>
		</defs>
		<clipPath id="SVGID_18_">
			<use xlink:href="#SVGID_17_"  style="overflow:visible;"/>
		</clipPath>
		<path class="st8" d="M238.6,93.7c-0.1-2.4-1.1-3-3.1-3h-3.8v6.7l3.7-0.1c1.8-0.1,2.5-0.1,2.8-2.1h0.7v5.8h-0.7
			c-0.2-2.2-0.9-2.2-2.8-2.2h-3.7v5.7c0.4,0.9,1.9,1.3,3.1,1.3v0.8h-9v-0.8c1.2-0.1,2.5-0.3,2.9-1.2V91.2c-0.2-0.6-1.5-1-2.7-1v-0.8
			h11.2c0.6,0,1.2,0,1.6-0.2h0.7v4.5H238.6z"/>
	</g>
	<g>
		<defs>
			<rect id="SVGID_19_" width="288.3" height="142.3"/>
		</defs>
		<clipPath id="SVGID_20_">
			<use xlink:href="#SVGID_19_"  style="overflow:visible;"/>
		</clipPath>
		<path class="st9" d="M93.4,141.9v-0.8c1.2-0.1,2.6-0.4,2.8-1l-0.5-9.9v-2.8l-0.8,2.2l-5.4,12.3h-1.1l-4.7-12.8L83,127l-0.1,1.9
			L82.1,140c0.2,0.5,1.5,1.1,2.7,1.2v0.8h-7v-0.8c1.2-0.1,2.4-0.6,2.7-1.2l0.7-9.7c0.1-1,0.2-2.9,0.2-3c0-0.2,0-0.6,0-0.9
			c-0.3-0.4-1.2-0.8-2.4-0.9v-0.7h6l0.9,2.6l3.9,10.6l4.4-10.4l1.2-2.8h5.4v0.7c-1.2,0.1-2.2,0.5-2.4,0.9v0.6c0,0.3,0.1,2.4,0.2,3.3
			l0.6,9.9c0.3,0.5,1.4,0.9,2.6,1v0.8L93.4,141.9L93.4,141.9z"/>
	</g>
	<g>
		<defs>
			<rect id="SVGID_21_" width="288.3" height="142.3"/>
		</defs>
		<clipPath id="SVGID_22_">
			<use xlink:href="#SVGID_21_"  style="overflow:visible;"/>
		</clipPath>
		<path class="st10" d="M114.8,141.9v-0.8c1.2-0.1,2.3-0.4,2.5-0.9l-1.8-5H110l-1.7,4.7c0.3,0.6,1.3,1.2,2.5,1.2v0.8h-7v-0.8
			c1.2-0.1,2.1-0.3,2.6-1c0.7-1.8,1.6-3.9,2.4-6.1c1.1-3,2.3-6,2.9-7.8c0.3-0.8,0.3-1.1,0.4-1.7h3.3c0.1,0.8,0.1,1.3,0.4,2
			c0.9,2.9,1.7,5.1,2.4,7.4c0.6,1.9,1.3,3.7,2.2,6c0.3,0.8,1.4,1.1,2.6,1.2v0.8L114.8,141.9L114.8,141.9z M113.4,128.3L113,127h-0.1
			l-0.4,1.3l-1.9,5.5h4.6L113.4,128.3z"/>
	</g>
	<g>
		<defs>
			<rect id="SVGID_23_" width="288.3" height="142.3"/>
		</defs>
		<clipPath id="SVGID_24_">
			<use xlink:href="#SVGID_23_"  style="overflow:visible;"/>
		</clipPath>
		<path class="st11" d="M142.6,126.7V137c0,1.4,0.1,3.9,0.2,5.1h-1.6l-10.5-12.9l-1.2-1.7l0.1,1.6v6.2c0,1.5,0.1,3.5,0.2,4.7
			c0.2,0.5,1.8,1.1,3,1.2v0.8h-7.5v-0.8c1.2-0.1,2.4-0.6,2.6-1.2v-9.7c0-1.3,0-2.7-0.1-3.7c-0.3-0.6-1.4-1.1-2.6-1.1v-0.7h5.4
			l1.5,1.9l8.8,10.8v-6.2c0-1.5-0.1-3.8-0.1-4.6c-0.2-0.6-1.8-1.1-3-1.2v-0.7h7.4v0.7C144,125.5,142.9,126.1,142.6,126.7"/>
	</g>
	<g>
		<defs>
			<rect id="SVGID_25_" width="288.3" height="142.3"/>
		</defs>
		<clipPath id="SVGID_26_">
			<use xlink:href="#SVGID_25_"  style="overflow:visible;"/>
		</clipPath>
		<path class="st12" d="M157,141.9v-0.8c1.2-0.1,2.3-0.4,2.5-0.9l-1.8-5h-5.5l-1.7,4.7c0.3,0.6,1.3,1.2,2.5,1.2v0.8h-7v-0.8
			c1.2-0.1,2.1-0.3,2.6-1c0.7-1.8,1.6-3.9,2.4-6.1c1.1-3,2.3-6,2.9-7.8c0.3-0.8,0.3-1.1,0.4-1.7h3.3c0.1,0.8,0.1,1.3,0.4,2
			c0.9,2.9,1.7,5.1,2.4,7.4c0.6,1.9,1.3,3.7,2.2,6c0.3,0.8,1.4,1.1,2.6,1.2v0.8L157,141.9L157,141.9z M155.6,128.3l-0.4-1.3h-0.1
			l-0.4,1.3l-1.9,5.5h4.6L155.6,128.3z"/>
	</g>
	<g>
		<defs>
			<rect id="SVGID_27_" width="288.3" height="142.3"/>
		</defs>
		<clipPath id="SVGID_28_">
			<use xlink:href="#SVGID_27_"  style="overflow:visible;"/>
		</clipPath>
		<path class="st13" d="M182.1,136.1v4.5c-1.9,0.9-4.1,1.7-7.2,1.7c-5.3,0-8.8-4.1-8.8-9.1c0-5.3,4.4-8.8,9.7-8.8
			c2.6,0,4.1,0.5,6.1,1v4.6h-0.7c-0.1-0.7-0.4-2.1-1.3-2.9c-0.4-0.4-1.6-1.6-4.3-1.6c-4.1,0-6.1,3.6-6.1,7.4c0,4.8,2.3,8.3,6.3,8.3
			c1.5,0,3-0.9,3.4-1.4v-3.6c-0.3-0.6-1.9-0.9-3.1-1v-0.7h8.3v0.7C183.1,135.1,182.4,135.5,182.1,136.1"/>
	</g>
	<g>
		<defs>
			<rect id="SVGID_29_" width="288.3" height="142.3"/>
		</defs>
		<clipPath id="SVGID_30_">
			<use xlink:href="#SVGID_29_"  style="overflow:visible;"/>
		</clipPath>
		<path class="st14" d="M191.5,141.9l-6.1,0.1v-0.7c1.2-0.1,3.1-0.4,3.4-1.3v-13.5c-0.2-0.5-1.4-0.8-2.6-0.9v-0.7h11.2
			c0.7,0,1.2-0.1,1.6-0.2h0.6v4.5h-0.7c-0.1-2.4-1.1-3-3.1-3h-3.9v6.4h3.7c1.8,0,2.6,0,2.8-2h0.7v5.6h-0.7c-0.2-2.2-0.8-2.2-2.8-2.2
			h-3.7v5.8c0.1,0.4,0.2,0.7,0.7,0.9l4.3-0.1c1.8,0,3-0.8,3.1-3.1h0.7v4.5h-9.2V141.9z"/>
	</g>
	<g>
		<defs>
			<rect id="SVGID_31_" width="288.3" height="142.3"/>
		</defs>
		<clipPath id="SVGID_32_">
			<use xlink:href="#SVGID_31_"  style="overflow:visible;"/>
		</clipPath>
		<path class="st15" d="M219.3,141.9v-0.8c1.2-0.1,2.6-0.4,2.8-1l-0.5-9.9v-2.8l-0.8,2.2l-5.4,12.3h-1.1l-4.7-12.8l-0.7-2.1
			l-0.1,1.9L208,140c0.2,0.5,1.5,1.1,2.7,1.2v0.8h-7v-0.8c1.2-0.1,2.4-0.6,2.7-1.2l0.7-9.7c0.1-1,0.2-2.9,0.2-3c0-0.2,0-0.6,0-0.9
			c-0.3-0.4-1.2-0.8-2.4-0.9v-0.7h6l0.9,2.6l3.9,10.6l4.4-10.4l1.2-2.8h5.4v0.7c-1.2,0.1-2.2,0.5-2.4,0.9v0.6c0,0.3,0.1,2.4,0.2,3.3
			l0.6,9.9c0.3,0.5,1.4,0.9,2.6,1v0.8L219.3,141.9L219.3,141.9z"/>
	</g>
	<g>
		<defs>
			<rect id="SVGID_33_" width="288.3" height="142.3"/>
		</defs>
		<clipPath id="SVGID_34_">
			<use xlink:href="#SVGID_33_"  style="overflow:visible;"/>
		</clipPath>
		<path class="st16" d="M236.3,141.9l-6.1,0.1v-0.7c1.2-0.1,3.1-0.4,3.4-1.3v-13.5c-0.2-0.5-1.4-0.8-2.6-0.9v-0.7h11.2
			c0.7,0,1.2-0.1,1.6-0.2h0.6v4.5h-0.7c-0.1-2.4-1.1-3-3.1-3h-3.9v6.4h3.7c1.8,0,2.6,0,2.8-2h0.7v5.6h-0.7c-0.2-2.2-0.8-2.2-2.8-2.2
			h-3.7v5.8c0.1,0.4,0.2,0.7,0.7,0.9l4.3-0.1c1.8,0,3-0.8,3.1-3.1h0.7v4.5h-9.2V141.9z"/>
	</g>
	<g>
		<defs>
			<rect id="SVGID_35_" width="288.3" height="142.3"/>
		</defs>
		<clipPath id="SVGID_36_">
			<use xlink:href="#SVGID_35_"  style="overflow:visible;"/>
		</clipPath>
		<path class="st17" d="M265.9,126.7V137c0,1.4,0.1,3.9,0.2,5.1h-1.6L254,129.2l-1.2-1.7l0.1,1.6v6.2c0,1.5,0.1,3.5,0.2,4.7
			c0.2,0.5,1.8,1.1,3,1.2v0.8h-7.5v-0.8c1.2-0.1,2.4-0.6,2.6-1.2v-9.7c0-1.3,0-2.7-0.1-3.7c-0.3-0.6-1.4-1.1-2.6-1.1v-0.7h5.4
			l1.5,1.9l8.8,10.8v-6.2c0-1.5-0.1-3.8-0.1-4.6c-0.2-0.6-1.8-1.1-3-1.2v-0.7h7.4v0.7C267.3,125.5,266.2,126.1,265.9,126.7"/>
	</g>
	<g>
		<defs>
			<rect id="SVGID_37_" width="288.3" height="142.3"/>
		</defs>
		<clipPath id="SVGID_38_">
			<use xlink:href="#SVGID_37_"  style="overflow:visible;"/>
		</clipPath>
		<path class="st18" d="M287.6,129.6c-0.1-2.3-1.3-3.5-3.2-3.5h-2.9v13.6c0.6,1.3,2.1,1.4,3.3,1.5v0.8H275v-0.8
			c1.2-0.1,3-0.3,3.4-1.1v-13.9h-2.9c-1.9,0-3.2,1.2-3.2,3.5h-0.7v-5.1h0.7c0.4,0.1,0.7,0.2,1.6,0.2H286c0.6,0,1.2-0.1,1.6-0.2h0.7
			v5.1h-0.7V129.6z"/>
	</g>
	<g>
		<defs>
			<rect id="SVGID_39_" width="288.3" height="142.3"/>
		</defs>
		<clipPath id="SVGID_40_">
			<use xlink:href="#SVGID_39_"  style="overflow:visible;"/>
		</clipPath>
		<path class="st19" d="M98.3,1.1v17.6c0,0.2,0,0.3,0,0.5c0,9.2-0.2,31.4-25.1,43.8h-0.1h-0.2C48,50.7,47.8,28.4,47.8,19.2v-0.5V1.1
			H98.3 M99.4,0h-1.1H47.8h-1.1v1.1v17.6v0.5c0,8.8,0,32,25.8,44.8l0.1,0.1l0.5,0.2l0.5-0.2l0.1-0.1c25.8-12.8,25.8-36,25.8-44.8
			v-0.3v-0.2V1.1L99.4,0L99.4,0z"/>
	</g>
	<g>
		<defs>
			<rect id="SVGID_41_" width="288.3" height="142.3"/>
		</defs>
		<clipPath id="SVGID_42_">
			<use xlink:href="#SVGID_41_"  style="overflow:visible;"/>
		</clipPath>
		<path class="st20" d="M98.3,18.7c0,0.2,0,0.3,0,0.5c0,9.2-0.2,31.4-25.1,43.8h-0.1h-0.2C48,50.7,47.8,28.4,47.8,19.2v-0.5V1.1
			h50.5V18.7z"/>
	</g>
	<g>
		<defs>
			<rect id="SVGID_43_" width="288.3" height="142.3"/>
		</defs>
		<clipPath id="SVGID_44_">
			<use xlink:href="#SVGID_43_"  style="overflow:visible;"/>
		</clipPath>
		<path class="st21" d="M98.3,19.2c0,9.4-0.3,31.6-25.3,44C48,50.8,47.7,28.6,47.7,19.3L98.3,19.2z"/>
	</g>
	<g>
		<defs>
			<rect id="SVGID_45_" width="288.3" height="142.3"/>
		</defs>
		<clipPath id="SVGID_46_">
			<use xlink:href="#SVGID_45_"  style="overflow:visible;"/>
		</clipPath>
		<rect x="47.8" y="1.1" class="st22" width="50.6" height="17.1"/>
	</g>
	<g>
		<defs>
			<rect id="SVGID_47_" width="288.3" height="142.3"/>
		</defs>
		<clipPath id="SVGID_48_">
			<use xlink:href="#SVGID_47_"  style="overflow:visible;"/>
		</clipPath>
		<path class="st23" d="M72.3,3.2c0.5,0.2,0.9,1,0.9,1s0.3-1,1.5-1.1s3.1,0.8,4.6-0.4L80.1,4l0.5-0.3l0.6,0.6v1.9
			c0.1,0.3,0.4,0.5,0.8,0.6c0,0,0.1-0.3,0-0.7c-0.3-0.7-0.2-1.3,0.2-1.7c0.1,0.1,0.6,0.3,0.9,0.2C82.8,5,82.8,5.5,82.9,6
			c0.2,0.6,0,1.3-0.3,1.7c-0.3,0.3-0.8,0.2-1.1,0l-0.2-0.1v4.9c0.1,0.2,0.2,0.5,0.4,0.6c0.5-0.2,0.1-0.9,0.2-1.3
			c0-0.3,0.2-0.5,0.3-0.7c0.2,0.1,0.8,0.2,0.9,0.2c0,0.2-0.3,0.6-0.2,1c0.2,1.3-0.4,1.9-0.7,2c-0.4,0.1-0.7-0.1-1-0.3v2.5l-6.8-0.1
			c0,0.3-0.1,0.9-1.2,0.9s-1.2-0.7-1.3-0.9c-2.4,0-7-0.1-7-0.1V14l0,0c-0.3,0.2-0.5,0.4-0.8,0.3c-0.4-0.1-0.6-0.6-0.6-1.2
			c-0.1-0.6,0.2-1.3-0.3-1.7c0.2-0.1,0.3-0.1,0.5-0.1s0.5-0.1,0.5-0.1c0.4,0.5,0.1,1.4,0.1,1.6c0,0.2,0.1,0.4,0.1,0.4
			c0.2-0.2,0.4-0.2,0.6-0.5V7.9l0,0c-0.4,0-0.7,0.2-1,0.1c-0.3-0.1-0.6-0.5-0.8-1.2C63.1,6,63.4,5,63.1,4.6L64,4.3
			c0.4,0.7,0.2,1.6,0,2.3c0,0.1,0,0.2,0.1,0.3c0.2-0.1,0.5-0.3,0.7-0.4V4.3l0.6-0.5H66c0,0,0.6-0.8,0.7-1
			C68.5,3.5,70.6,2.7,72.3,3.2"/>
	</g>
	<g>
		<defs>
			<rect id="SVGID_49_" width="288.3" height="142.3"/>
		</defs>
		<clipPath id="SVGID_50_">
			<use xlink:href="#SVGID_49_"  style="overflow:visible;"/>
		</clipPath>
		<path class="st24" d="M72.4,3.6c0.4,0.2,0.6,0.6,0.6,1v10.5c-0.8-1.4-1.7-0.8-4.5-0.8c-0.6,0-1.4-0.3-1.6-0.6c0-3.5,0-10.7,0-10.7
			C68.6,4,70.7,2.9,72.4,3.6"/>
	</g>
	<g>
		<defs>
			<rect id="SVGID_51_" width="288.3" height="142.3"/>
		</defs>
		<clipPath id="SVGID_52_">
			<use xlink:href="#SVGID_51_"  style="overflow:visible;"/>
		</clipPath>
		<path class="st25" d="M79.2,13.9c0,0-0.2,0.4-1.6,0.4c-1.3,0.1-3.4-0.7-4.3,0.8V4.5c0.1-0.4,0.4-0.6,0.8-0.8
			c1.3-0.4,1.8,0.1,3.1,0c1.2-0.1,1.7-0.3,2-0.6V13.9z"/>
	</g>
	<g>
		<defs>
			<rect id="SVGID_53_" width="288.3" height="142.3"/>
		</defs>
		<clipPath id="SVGID_54_">
			<use xlink:href="#SVGID_53_"  style="overflow:visible;"/>
		</clipPath>
		<path class="st26" d="M80,15.2c-0.3-0.3-0.6-0.8-0.6-1.2V3.3L80,4.2V15.2z"/>
	</g>
	<g>
		<defs>
			<rect id="SVGID_55_" width="288.3" height="142.3"/>
		</defs>
		<clipPath id="SVGID_56_">
			<use xlink:href="#SVGID_55_"  style="overflow:visible;"/>
		</clipPath>
		<path class="st27" d="M66.7,11.4v2.5c-0.1,0.3-0.3,0.6-0.5,0.8V9.2c0-1.7,0-3.8,0.1-5.4l0.5-0.6L66.7,11.4z"/>
	</g>
	<g>
		<defs>
			<rect id="SVGID_57_" width="288.3" height="142.3"/>
		</defs>
		<clipPath id="SVGID_58_">
			<use xlink:href="#SVGID_57_"  style="overflow:visible;"/>
		</clipPath>
		<polygon class="st28" points="66.1,3.9 66,15.2 71.8,15.4 72,15.6 65.6,15.5 65.7,3.9 		"/>
	</g>
	<g>
		<defs>
			<rect id="SVGID_59_" width="288.3" height="142.3"/>
		</defs>
		<clipPath id="SVGID_60_">
			<use xlink:href="#SVGID_59_"  style="overflow:visible;"/>
		</clipPath>
		<polygon class="st29" points="65.5,6 65.4,15.5 65.2,15.7 65.2,4.3 65.5,4 		"/>
	</g>
	<g>
		<defs>
			<rect id="SVGID_61_" width="288.3" height="142.3"/>
		</defs>
		<clipPath id="SVGID_62_">
			<use xlink:href="#SVGID_61_"  style="overflow:visible;"/>
		</clipPath>
		<path class="st30" d="M80.5,4.1l-0.1,11.7c-2,0-6.2-0.1-6.2-0.1l0.1-0.2h5.8V4.3L80.5,4.1z"/>
	</g>
	<g>
		<defs>
			<rect id="SVGID_63_" width="288.3" height="142.3"/>
		</defs>
		<clipPath id="SVGID_64_">
			<use xlink:href="#SVGID_63_"  style="overflow:visible;"/>
		</clipPath>
		<path class="st31" d="M81.1,4.4c0,0-0.1,10.7-0.2,11.7l-0.3-0.4L80.8,4L81.1,4.4z"/>
	</g>
	<g>
		<defs>
			<rect id="SVGID_65_" width="288.3" height="142.3"/>
		</defs>
		<clipPath id="SVGID_66_">
			<use xlink:href="#SVGID_65_"  style="overflow:visible;"/>
		</clipPath>
		<path class="st32" d="M64,5.2c0,0.5-0.3,1.1,0,1.6c0,0,0,0.2-0.3,0.2c-0.2,0-0.3-0.3-0.3-0.5c-0.1-0.6,0.2-0.9,0.1-1.7L64,4.7V5.2
			z"/>
	</g>
	<g>
		<defs>
			<rect id="SVGID_67_" width="288.3" height="142.3"/>
		</defs>
		<clipPath id="SVGID_68_">
			<use xlink:href="#SVGID_67_"  style="overflow:visible;"/>
		</clipPath>
		<path class="st33" d="M82.7,4.8c-0.3,0.6,0.1,1.2,0,1.8c-0.1,0.1-0.3,0.1-0.5,0.1c0.2-0.4,0-0.6-0.2-1.3c-0.1-0.5,0.2-0.8,0.2-0.8
			S82.4,4.9,82.7,4.8"/>
	</g>
	<g>
		<defs>
			<rect id="SVGID_69_" width="288.3" height="142.3"/>
		</defs>
		<clipPath id="SVGID_70_">
			<use xlink:href="#SVGID_69_"  style="overflow:visible;"/>
		</clipPath>
		<path class="st34" d="M82.6,7c0,0.1-0.1,0.5-0.4,0.6s-0.8-0.2-1-0.3c0-0.2,0-0.5,0-0.7C81.5,6.9,82.1,7.2,82.6,7"/>
	</g>
	<g>
		<defs>
			<rect id="SVGID_71_" width="288.3" height="142.3"/>
		</defs>
		<clipPath id="SVGID_72_">
			<use xlink:href="#SVGID_71_"  style="overflow:visible;"/>
		</clipPath>
		<path class="st35" d="M64.9,7.4c-0.3,0.2-0.8,0.5-1.1,0.2c-0.1-0.1-0.2-0.2-0.2-0.4c0.5,0,1-0.2,1.4-0.5L64.9,7.4z"/>
	</g>
	<g>
		<defs>
			<rect id="SVGID_73_" width="288.3" height="142.3"/>
		</defs>
		<clipPath id="SVGID_74_">
			<use xlink:href="#SVGID_73_"  style="overflow:visible;"/>
		</clipPath>
		<path class="st36" d="M82.7,11.4c-0.3,0.9,0,1.4-0.2,1.7c-0.2,0.4-0.8,0.1-0.8,0.1s0.2,0,0.3-0.3c0.1-0.3-0.2-1.1,0.2-1.6
			L82.7,11.4z"/>
	</g>
	<g>
		<defs>
			<rect id="SVGID_75_" width="288.3" height="142.3"/>
		</defs>
		<clipPath id="SVGID_76_">
			<use xlink:href="#SVGID_75_"  style="overflow:visible;"/>
		</clipPath>
		<path class="st37" d="M64.1,11.7c0.1,0.4,0,0.8,0,1.2l0.1,0.3c-0.1,0.1-0.3,0-0.4,0c-0.3-0.5,0.2-1.1-0.2-1.6l0.4-0.1
			C63.9,11.4,64,11.6,64.1,11.7"/>
	</g>
	<g>
		<defs>
			<rect id="SVGID_77_" width="288.3" height="142.3"/>
		</defs>
		<clipPath id="SVGID_78_">
			<use xlink:href="#SVGID_77_"  style="overflow:visible;"/>
		</clipPath>
		<path class="st38" d="M82.5,13.5C82.4,13.7,82.3,14,82,14s-0.7-0.1-0.9-0.4V13C81.5,13.3,82,13.7,82.5,13.5"/>
	</g>
	<g>
		<defs>
			<rect id="SVGID_79_" width="288.3" height="142.3"/>
		</defs>
		<clipPath id="SVGID_80_">
			<use xlink:href="#SVGID_79_"  style="overflow:visible;"/>
		</clipPath>
		<path class="st39" d="M64.9,13.6c-0.3,0.2-0.7,0.5-0.9,0.3c-0.2-0.1-0.3-0.3-0.3-0.5c0.4,0.1,0.9-0.3,1.2-0.5V13.6z"/>
	</g>
	<g>
		<defs>
			<rect id="SVGID_81_" width="288.3" height="142.3"/>
		</defs>
		<clipPath id="SVGID_82_">
			<use xlink:href="#SVGID_81_"  style="overflow:visible;"/>
		</clipPath>
		<path class="st40" d="M73,15.5c0.1,0.3,0,0.3,0,0.4c-0.5,0.1-0.8-0.3-1.1-0.7c0,0-3.9-0.2-5.7-0.2c0.2-0.3,0.6-0.6,0.6-1
			C68.3,15.3,72.2,13.5,73,15.5"/>
	</g>
	<g>
		<defs>
			<rect id="SVGID_83_" width="288.3" height="142.3"/>
		</defs>
		<clipPath id="SVGID_84_">
			<use xlink:href="#SVGID_83_"  style="overflow:visible;"/>
		</clipPath>
		<path class="st41" d="M79.8,15.2c-1.9,0.1-3.8,0-5.6,0.1c-0.2,0.3-0.5,0.7-0.9,0.6c0.5-1.7,2.1-1.3,4.3-1.3c1.2,0,1.6-0.5,1.6-0.5
			C79.3,14.5,79.6,15,79.8,15.2"/>
	</g>
	<g>
		<defs>
			<rect id="SVGID_85_" width="288.3" height="142.3"/>
		</defs>
		<clipPath id="SVGID_86_">
			<use xlink:href="#SVGID_85_"  style="overflow:visible;"/>
		</clipPath>
		<path class="st42" d="M72.1,15.8c0,0,0,0.1,0.1,0.1c-0.4,0.1-6.9,0-6.9,0l0.4-0.2L72.1,15.8z"/>
	</g>
	<g>
		<defs>
			<rect id="SVGID_87_" width="288.3" height="142.3"/>
		</defs>
		<clipPath id="SVGID_88_">
			<use xlink:href="#SVGID_87_"  style="overflow:visible;"/>
		</clipPath>
		<path class="st43" d="M80.4,15.8l0.3,0.3L74,15.9l0.1-0.1C74.1,15.8,78.4,15.8,80.4,15.8"/>
	</g>
	<g>
		<defs>
			<rect id="SVGID_89_" width="288.3" height="142.3"/>
		</defs>
		<clipPath id="SVGID_90_">
			<use xlink:href="#SVGID_89_"  style="overflow:visible;"/>
		</clipPath>
		<path class="st44" d="M73.2,16.3c0.3,0,0.6-0.1,0.8-0.3c0.2,0.3-0.1,0.7-0.8,0.7c-0.8,0-1.1-0.5-0.9-0.8
			C72.5,16.3,72.9,16.3,73.2,16.3"/>
	</g>
	<g>
		<defs>
			<rect id="SVGID_91_" width="288.3" height="142.3"/>
		</defs>
		<clipPath id="SVGID_92_">
			<use xlink:href="#SVGID_91_"  style="overflow:visible;"/>
		</clipPath>
		<path class="st45" d="M70.5,11.6c-0.2,0-0.4-0.1-0.7-0.1c-0.2,0-0.5,0-0.7,0.1c0-0.5,0.1-0.9,0.2-1.2c0.6,0.1,0.9,0.1,1,0.2
			C70.5,10.8,70.4,11.1,70.5,11.6 M70.8,10.8c0-0.8-0.4-0.9-1.1-0.9c-0.5,0-0.6-0.1-0.7-0.4h-0.1c0.1,0.2,0,0.3,0,0.5
			s0.1,0.3,0.3,0.4c-0.3,0.4-0.3,1-0.3,1.7c0.3,0,0.6-0.1,0.9-0.1s0.6,0,0.9,0.1C70.7,11.7,70.8,11.3,70.8,10.8"/>
	</g>
	<g>
		<defs>
			<rect id="SVGID_93_" width="288.3" height="142.3"/>
		</defs>
		<clipPath id="SVGID_94_">
			<use xlink:href="#SVGID_93_"  style="overflow:visible;"/>
		</clipPath>
		<path class="st46" d="M76.7,11.6c-0.2-0.1-0.4-0.1-0.7-0.1c-0.2,0-0.4,0-0.6,0.1c0,0,0-0.3,0-0.4c0-0.2,0.1-0.5,0.2-0.7
			c0.5,0,0.8,0,1,0.1C76.7,10.7,76.7,11,76.7,11.6 M77,10.7c0-0.7-0.3-0.8-0.6-0.8c-0.2,0-0.8,0-1.1-0.1c-0.1,0-0.1-0.2-0.1-0.4
			h-0.1c-0.1,0.2-0.2,0.3-0.2,0.5s0.1,0.4,0.3,0.5c-0.3,0.5-0.2,1-0.3,1.7c0.3,0,0.7-0.1,1-0.1s0.6,0,0.8,0.1
			C76.9,11.6,77,11.6,77,10.7"/>
	</g>
	<g>
		<defs>
			<rect id="SVGID_95_" width="288.3" height="142.3"/>
		</defs>
		<clipPath id="SVGID_96_">
			<use xlink:href="#SVGID_95_"  style="overflow:visible;"/>
		</clipPath>
		<path class="st47" d="M71.8,10.3c0-0.3-0.3-0.5-0.4-0.7V9.3h-0.1c0,0.1-0.3,0.4-0.3,0.5s0,0.3,0.2,0.4c0.1,0.1,0.2,0.2,0.2,0.3
			c0,0,0,0.2,0,0.3h0.1C71.6,10.7,71.8,10.5,71.8,10.3"/>
	</g>
	<g>
		<defs>
			<rect id="SVGID_97_" width="288.3" height="142.3"/>
		</defs>
		<clipPath id="SVGID_98_">
			<use xlink:href="#SVGID_97_"  style="overflow:visible;"/>
		</clipPath>
		<path class="st48" d="M78,10.2c0-0.3-0.4-0.3-0.4-0.6c0-0.1,0-0.2,0-0.3h-0.1c-0.1,0.2-0.3,0.4-0.3,0.6c0,0.1,0,0.3,0.2,0.4
			c0.1,0.1,0.2,0.2,0.2,0.2s0,0.3,0,0.4h0.1C77.9,10.6,78,10.3,78,10.2"/>
	</g>
	<g>
		<defs>
			<rect id="SVGID_99_" width="288.3" height="142.3"/>
		</defs>
		<clipPath id="SVGID_100_">
			<use xlink:href="#SVGID_99_"  style="overflow:visible;"/>
		</clipPath>
		<path class="st49" d="M75.4,7.9c-0.3-0.3,0-1.1-0.3-1.6c0-0.1-0.2-0.1-0.3-0.1h-0.6C74,6.2,74,6,73.9,5.8h-0.1
			c-0.1,0.1-0.1,0.3-0.1,0.4c0,0.4,0.3,0.6,0.5,0.6c0.3,0,0.6-0.1,0.7,0.1C74.9,7,75,7.1,75,7.5s0,0.7,0,0.9h0
			C75.2,8.2,75.3,8,75.4,7.9"/>
	</g>
	<g>
		<defs>
			<rect id="SVGID_101_" width="288.3" height="142.3"/>
		</defs>
		<clipPath id="SVGID_102_">
			<use xlink:href="#SVGID_101_"  style="overflow:visible;"/>
		</clipPath>
		<path class="st50" d="M71.6,7.9c-0.3-0.3-0.1-1.6-0.3-1.7c-0.1-0.1-0.2-0.1-0.4-0.1c-0.2,0-0.3,0-0.5,0S70.1,6,70,5.6h-0.1
			c0,0.2-0.1,0.3-0.1,0.4c0,0.3,0,0.5,0.3,0.6C70,6.8,70,6.9,70,7.1s0,0.3,0,0.6c-0.3,0.1-0.3,0.1-0.4,0.2s-0.1,0.2-0.1,0.4
			c0.7,0,0.9-0.1,0.9-0.3s-0.2-0.6-0.2-1c0-0.2,0.1-0.2,0.1-0.3c0.2,0,0.4-0.1,0.7,0c0.1,0.1,0.2,0.4,0.2,0.7c0,0.4,0,0.7,0,0.9h0.1
			C71.4,8.2,71.6,8,71.6,7.9"/>
	</g>
	<g>
		<defs>
			<rect id="SVGID_103_" width="288.3" height="142.3"/>
		</defs>
		<clipPath id="SVGID_104_">
			<use xlink:href="#SVGID_103_"  style="overflow:visible;"/>
		</clipPath>
		<path class="st51" d="M76.4,7.9L76.4,7.9c-0.1-0.1-0.1-0.1-0.1-0.2c-0.1-0.1-0.1-0.4-0.1-0.6c0-0.1,0-0.2,0.1-0.3
			c0.1-0.1,0.1-0.2,0.1-0.5c0-0.2-0.2-0.2-0.4-0.2c-0.2,0-0.3-0.1-0.3-0.2s-0.1-0.2-0.1-0.2h-0.1c-0.1,0.2-0.1,0.3-0.1,0.5
			c0,0.4,0.1,0.6,0.6,0.6c0,0.3,0,0.6,0,1c0,0.2,0,0.3,0,0.5h0.1C76.2,8.2,76.3,8.1,76.4,7.9"/>
	</g>
	<g>
		<defs>
			<rect id="SVGID_105_" width="288.3" height="142.3"/>
		</defs>
		<clipPath id="SVGID_106_">
			<use xlink:href="#SVGID_105_"  style="overflow:visible;"/>
		</clipPath>
		<path class="st52" d="M69.7,6.8c0-0.4-0.3-0.4-0.6-0.6c-0.1,0-0.3-0.2-0.3-0.6h-0.1c-0.2,0.2-0.3,0.4-0.4,0.6
			c-0.2,0-0.5-0.2-0.4-0.6h-0.1c-0.2,0.1-0.2,0.3-0.2,0.5s0.1,0.4,0.4,0.6c-0.1,0.2-0.4,0.5-0.4,0.7s0.1,0.5,0.1,0.6s0,0.2-0.1,0.3
			c0,0,0,0.1,0.1,0.1C67.8,8.2,68,8.1,68,7.7c0-0.2-0.1-0.3-0.1-0.5s0.2-0.5,0.4-0.7c0.4,0.2,1,0.3,1,0.8c0,0.1-0.1,0.4-0.2,0.5
			s-0.2,0.1-0.4,0.1h-0.5c-0.1,0.2-0.1,0.3-0.2,0.5h0.1c0.1,0,0.2,0,0.3,0c0.2,0,0.3,0,0.4,0c0.3,0,0.4-0.2,0.6-0.6
			C69.5,7.5,69.7,7.1,69.7,6.8"/>
	</g>
	<g>
		<defs>
			<rect id="SVGID_107_" width="288.3" height="142.3"/>
		</defs>
		<clipPath id="SVGID_108_">
			<use xlink:href="#SVGID_107_"  style="overflow:visible;"/>
		</clipPath>
		<path class="st53" d="M72.6,7.9L72.6,7.9c-0.1-0.1-0.1-0.1-0.1-0.2c-0.1-0.1-0.1-0.4-0.1-0.6c0-0.1,0-0.2,0-0.3
			c0-0.1,0.2-0.2,0.2-0.5c0-0.2-0.2-0.2-0.5-0.2c-0.1,0-0.2-0.1-0.3-0.2l-0.1-0.2h-0.1c0,0.2-0.1,0.3-0.1,0.5c0,0.4,0.1,0.5,0.6,0.5
			c0,0.2-0.1,0.4-0.1,0.7c0,0.3,0,0.7-0.1,0.9H72C72.5,8.2,72.5,8.1,72.6,7.9"/>
	</g>
	<g>
		<defs>
			<rect id="SVGID_109_" width="288.3" height="142.3"/>
		</defs>
		<clipPath id="SVGID_110_">
			<use xlink:href="#SVGID_109_"  style="overflow:visible;"/>
		</clipPath>
		<path class="st54" d="M78.6,7.6c0-0.2-0.1-0.4-0.3-0.5c-0.1,0-0.2-0.2-0.1-0.1c0.2-0.1,0.4-0.3,0.4-0.6c0-0.1,0-0.2-0.1-0.3
			c-0.1,0-0.2-0.1-0.2-0.2s0-0.2,0-0.2h-0.1c-0.1,0.1-0.3,0.3-0.3,0.5c0,0.4,0.5,0.3,0.2,0.8c-0.5-0.2-1.1-0.5-1-1.2H77
			c-0.2,0.1-0.2,0.4-0.2,0.5c0,0.4,0.3,0.7,0.5,0.8c-0.1,0.1-0.2,0.1-0.2,0.2c-0.1,0.1-0.2,0.2-0.2,0.4c0,0.1,0,0.3,0,0.4l-0.2,0.1
			v0.1c0.3,0,0.8,0.1,0.8-0.3c0-0.1-0.2-0.3-0.2-0.4c0-0.2,0.1-0.3,0.2-0.4c0.4,0.2,0.9,0.4,0.9,0.8c0,0.1,0,0.2-0.1,0.3h0.1
			C78.5,8.1,78.6,7.8,78.6,7.6"/>
	</g>
	<g>
		<defs>
			<rect id="SVGID_111_" width="288.3" height="142.3"/>
		</defs>
		<clipPath id="SVGID_112_">
			<use xlink:href="#SVGID_111_"  style="overflow:visible;"/>
		</clipPath>
		<path class="st55" d="M84,46.3c1.2,1.2,3.2,1.2,4.4,0c1.2-1.2,1.2-3.2,0-4.4s-3.2-1.2-4.4,0C82.8,43.1,82.8,45.1,84,46.3"/>
	</g>
	<g>
		<defs>
			<rect id="SVGID_113_" width="288.3" height="142.3"/>
		</defs>
		<clipPath id="SVGID_114_">
			<use xlink:href="#SVGID_113_"  style="overflow:visible;"/>
		</clipPath>
		<path class="st56" d="M77.1,53.2c1.2,1.2,3.2,1.2,4.4,0c1.2-1.2,1.2-3.2,0-4.4s-3.2-1.2-4.4,0C75.9,50,75.9,52,77.1,53.2"/>
	</g>
	<g>
		<defs>
			<rect id="SVGID_115_" width="288.3" height="142.3"/>
		</defs>
		<clipPath id="SVGID_116_">
			<use xlink:href="#SVGID_115_"  style="overflow:visible;"/>
		</clipPath>
		<path class="st57" d="M64.5,48.8c-1.2,1.2-1.2,3.2,0,4.4c1.2,1.2,3.2,1.2,4.4,0c1.2-1.2,1.2-3.2,0-4.4
			C67.8,47.5,65.8,47.5,64.5,48.8"/>
	</g>
	<g>
		<defs>
			<rect id="SVGID_117_" width="288.3" height="142.3"/>
		</defs>
		<clipPath id="SVGID_118_">
			<use xlink:href="#SVGID_117_"  style="overflow:visible;"/>
		</clipPath>
		<path class="st58" d="M57.7,41.9c-1.2,1.2-1.2,3.2,0,4.4s3.2,1.2,4.4,0s1.2-3.2,0-4.4C60.9,40.6,58.9,40.6,57.7,41.9"/>
	</g>
	<g>
		<defs>
			<rect id="SVGID_119_" width="288.3" height="142.3"/>
		</defs>
		<clipPath id="SVGID_120_">
			<use xlink:href="#SVGID_119_"  style="overflow:visible;"/>
		</clipPath>
		<path class="st59" d="M64.5,26.8c1.2,1.2,3.2,1.2,4.4,0c1.2-1.2,1.2-3.2,0-4.4c-1.2-1.2-3.2-1.2-4.4,0
			C63.3,23.6,63.3,25.6,64.5,26.8"/>
	</g>
	<g>
		<defs>
			<rect id="SVGID_121_" width="288.3" height="142.3"/>
		</defs>
		<clipPath id="SVGID_122_">
			<use xlink:href="#SVGID_121_"  style="overflow:visible;"/>
		</clipPath>
		<path class="st60" d="M57.7,33.7c1.2,1.2,3.2,1.2,4.4,0s1.2-3.2,0-4.4c-1.2-1.2-3.2-1.2-4.4,0C56.4,30.5,56.4,32.5,57.7,33.7"/>
	</g>
	<g>
		<defs>
			<rect id="SVGID_123_" width="288.3" height="142.3"/>
		</defs>
		<clipPath id="SVGID_124_">
			<use xlink:href="#SVGID_123_"  style="overflow:visible;"/>
		</clipPath>
		<path class="st61" d="M84,29.3c-1.2,1.2-1.2,3.2,0,4.4s3.2,1.2,4.4,0c1.2-1.2,1.2-3.2,0-4.4C87.2,28.1,85.2,28.1,84,29.3"/>
	</g>
	<g>
		<defs>
			<rect id="SVGID_125_" width="288.3" height="142.3"/>
		</defs>
		<clipPath id="SVGID_126_">
			<use xlink:href="#SVGID_125_"  style="overflow:visible;"/>
		</clipPath>
		<path class="st62" d="M77.1,22.4c-1.2,1.2-1.2,3.2,0,4.4c1.2,1.2,3.2,1.2,4.4,0c1.2-1.2,1.2-3.2,0-4.4S78.3,21.2,77.1,22.4"/>
	</g>
	<g>
		<defs>
			<rect id="SVGID_127_" width="288.3" height="142.3"/>
		</defs>
		<clipPath id="SVGID_128_">
			<use xlink:href="#SVGID_127_"  style="overflow:visible;"/>
		</clipPath>
		<path class="st63" d="M61.4,38L61.4,38L61.4,38z"/>
	</g>
	<g>
		<defs>
			<rect id="SVGID_129_" width="288.3" height="142.3"/>
		</defs>
		<clipPath id="SVGID_130_">
			<use xlink:href="#SVGID_129_"  style="overflow:visible;"/>
		</clipPath>
		<polygon class="st64" points="61.8,38.3 73.1,49.6 84.3,38.3 		"/>
	</g>
	<g>
		<defs>
			<rect id="SVGID_131_" width="288.3" height="142.3"/>
		</defs>
		<clipPath id="SVGID_132_">
			<use xlink:href="#SVGID_131_"  style="overflow:visible;"/>
		</clipPath>
		<polygon class="st65" points="84.3,37.3 73.1,26 61.8,37.3 		"/>
	</g>
</g>
</svg>
