<?xml version="1.0" encoding="utf-8"?>
<!-- Generator: Adobe Illustrator 19.2.1, SVG Export Plug-In . SVG Version: 6.00 Build 0)  -->
<svg version="1.1" id="Layer_1" xmlns="http://www.w3.org/2000/svg" xmlns:xlink="http://www.w3.org/1999/xlink" x="0px" y="0px"
	 viewBox="0 0 107.6 131.2" style="enable-background:new 0 0 107.6 131.2;" xml:space="preserve">
<style type="text/css">
	.st0{fill:#FFFFFF;}
	.st1{fill:#002856;}
	.st2{fill:#BC9905;}
	.st3{fill:#9CB6D3;}
</style>
<g>
	<g>
		<path d="M106.5,1v36.7c0,0.3,0,0.7,0,1c0,19.2-0.5,65.5-52.4,91.2l-0.2,0.1l-0.2-0.1C1.7,104.2,1.2,57.9,1.2,38.7c0-0.3,0-0.7,0-1
			V1H106.5 M107.5,0h-1H1.2h-1v1v36.7v1c0,18-0.1,65.8,52.9,92l0.2,0.1l0.4,0.2l0.4-0.2l0.2-0.1c53-26.2,52.9-74,52.9-92
			c0-0.2,0-0.5,0-0.7l0-0.3V1L107.5,0L107.5,0z"/>
	</g>
	<g>
		<path class="st0" d="M106.5,37.7c0,0.3,0,0.7,0,1c0,19.2-0.5,65.5-52.4,91.2l-0.2,0.1l-0.2-0.1C1.7,104.2,1.2,57.9,1.2,38.7
			c0-0.3,0-0.7,0-1V1h105.2V37.7z"/>
	</g>
	<g>
		<path class="st1" d="M106.5,38.7c0,19.5-0.6,65.7-52.6,91.5l0,0C1.8,104.4,1.2,58.2,1.2,38.7L106.5,38.7z"/>
	</g>
	<rect x="1.2" y="1" class="st1" width="105.3" height="36.1"/>
	<g>
		<path d="M52.3,5.3c0.9,0.3,1.9,2.1,1.9,2.1s0.5-2.1,3-2.2c2.6-0.2,6.5,1.6,9.6-0.8l1.8,2.7l1-0.6l1.3,1.2l-0.1,3.9
			c0.2,0.7,0.9,1.1,1.6,1.2c0,0,0.2-0.7-0.1-1.5c-0.6-1.5-0.5-2.7,0.4-3.5c0.2,0.3,1.3,0.6,1.8,0.5c-0.3,0.8-0.5,1.8-0.3,2.8
			c0.3,1.2,0.1,2.6-0.6,3.6c-0.7,0.7-1.7,0.4-2.4,0l-0.5-0.2v10.1c0.2,0.5,0.4,0.9,0.8,1.2c0.9-0.5,0.2-1.8,0.4-2.7
			c0-0.5,0.4-1.1,0.7-1.5c0.5,0.2,1.7,0.5,1.8,0.5c-0.1,0.4-0.6,1.2-0.5,2c0.3,2.7-0.8,3.9-1.4,4.1c-0.8,0.2-1.5-0.3-2.1-0.6v5.1
			l-14.1-0.3c-0.1,0.6-0.2,1.9-2.5,1.9c-2.3,0-2.6-1.5-2.7-1.8c-4.9,0-14.5-0.3-14.5-0.3v-4.5l0,0c-0.5,0.3-1,0.8-1.7,0.5
			c-0.7-0.3-1.2-1.3-1.3-2.5c-0.1-1.2,0.4-2.6-0.6-3.5c0.3-0.2,0.7-0.2,1.1-0.3c0.4,0,1-0.2,1-0.2c0.8,1,0.3,2.8,0.3,3.3
			c0,0.5,0.2,0.8,0.2,0.8c0.4-0.3,0.9-0.5,1.2-0.9l0.1-10l-0.1-0.1c-0.6,0.2-1.3,0.7-1.9,0.4c-0.7-0.3-1.3-1-1.6-2.6
			c-0.2-1.6,0.4-3.6-0.1-4.5l1.9-0.7c0.9,1.4,0.3,3.2,0.1,4.8c0,0.2,0.1,0.4,0.3,0.5c0.5-0.2,1-0.5,1.4-0.9l0-4.7l1.2-1.1l1.3,0.1
			c0,0,1.2-1.6,1.4-2.2C44.4,6.1,48.7,4.3,52.3,5.3"/>
		<path class="st0" d="M52.5,6.2c0.9,0.4,1.2,1.2,1.3,2.1v21.8c-1.7-2.8-3.5-1.8-9.4-1.8c-1.2,0-2.9-0.7-3.4-1.3
			C41,19.8,41.2,5,41.2,5C44.5,7,49,4.7,52.5,6.2"/>
		<path class="st0" d="M66.6,27.7c0,0-0.4,0.9-3.3,0.9c-2.7,0.1-7.1-1.5-8.9,1.6V8c0.1-0.8,0.9-1.4,1.6-1.7c2.7-0.9,3.8,0.2,6.4,0
			c2.5-0.1,3.5-0.6,4.2-1.3L66.6,27.7z"/>
		<path class="st2" d="M68.3,30.3c-0.6-0.7-1.1-1.6-1.3-2.5l0-22.3l1.3,1.9L68.3,30.3z"/>
		<path class="st2" d="M40.6,22.4v5.3c-0.1,0.7-0.6,1.3-1,1.8l0-11.4c0-3.5,0.1-7.9,0.2-11.3l1-1.3L40.6,22.4z"/>
		<polygon class="st0" points="39.3,6.9 39.1,30.4 51.2,30.8 51.7,31.2 38.4,31 38.5,6.8 		"/>
		<polygon class="st0" points="38.1,11.1 38,31.1 37.5,31.4 37.4,7.7 38.1,7.1 		"/>
		<g>
			<path class="st0" d="M69.4,7.1l-0.2,24.3c-4.2,0-12.9-0.1-12.9-0.1l0.2-0.4l12.2,0l0-23.4L69.4,7.1z"/>
			<path class="st0" d="M70.6,7.9c0,0-0.3,22.2-0.4,24.3l-0.7-0.7l0.3-24.3L70.6,7.9z"/>
			<path class="st0" d="M35.1,9.6c0.1,1.1-0.6,2.3,0,3.4c0,0-0.1,0.3-0.6,0.2c-0.5,0-0.7-0.6-0.7-0.9c-0.1-1.3,0.4-1.9,0.2-3.5
				l1-0.3L35.1,9.6z"/>
			<path class="st0" d="M73.9,8.8c-0.6,1.3,0.3,2.6,0,3.8c-0.2,0.2-0.7,0.2-1,0.2c0.4-0.7-0.1-1.3-0.4-2.7c-0.2-1.1,0.4-1.6,0.4-1.6
				S73.3,8.8,73.9,8.8"/>
			<path class="st0" d="M73.7,13.3c0,0.2-0.2,1.1-0.8,1.3c-0.7,0.2-1.7-0.4-2.1-0.7c0-0.5,0-1-0.1-1.5
				C71.5,13.1,72.7,13.7,73.7,13.3"/>
			<path class="st0" d="M36.9,14.1c-0.7,0.3-1.6,0.9-2.3,0.4c-0.3-0.2-0.4-0.5-0.5-0.8c1,0.1,2.1-0.4,2.9-1L36.9,14.1z"/>
			<path class="st0" d="M74,22.5c-0.7,1.9,0,2.9-0.4,3.5c-0.5,0.8-1.7,0.2-1.7,0.2s0.4,0,0.6-0.7c0.2-0.7-0.5-2.3,0.3-3.3L74,22.5z"
				/>
			<path class="st0" d="M35.2,23c0.2,0.8,0,1.6-0.1,2.4l0.1,0.7c-0.2,0.2-0.6,0.1-0.9,0c-0.6-1.1,0.4-2.4-0.4-3.4l0.9-0.2
				C34.9,22.5,35.1,22.8,35.2,23"/>
			<path class="st0" d="M73.5,26.7c-0.1,0.4-0.4,1-1,1c-0.6,0-1.5-0.2-1.8-0.9l0-1.2C71.4,26.4,72.4,27.2,73.5,26.7"/>
			<path class="st0" d="M36.8,27c-0.5,0.4-1.4,1-1.8,0.7c-0.3-0.2-0.6-0.6-0.6-1c0.9,0.2,1.8-0.5,2.5-1L36.8,27z"/>
			<path class="st2" d="M53.8,31c0.3,0.6,0.1,0.5,0,0.9c-1,0.2-1.7-0.7-2.3-1.4c0,0-8-0.4-11.8-0.5c0.5-0.7,1.3-1.3,1.4-2.2
				C43.9,30.6,52,26.9,53.8,31"/>
			<path class="st2" d="M67.8,30.4c-3.9,0.2-7.8,0-11.6,0.1c-0.4,0.7-1.1,1.5-1.9,1.3c1-3.6,4.4-2.6,8.9-2.6c2.5,0,3.4-1,3.4-1
				C66.8,28.9,67.5,29.9,67.8,30.4"/>
			<path class="st0" d="M52,31.5c0,0,0.1,0.1,0.1,0.2c-0.9,0.2-14.4,0.1-14.4,0.1l0.8-0.5L52,31.5z"/>
			<path class="st0" d="M69.3,31.7l0.6,0.6l-14-0.4l0.2-0.3C56,31.6,64.9,31.6,69.3,31.7"/>
			<path class="st0" d="M54.1,32.7c0.6,0,1.2-0.2,1.6-0.5c0.4,0.6-0.1,1.5-1.6,1.5c-1.6,0-2.3-1-1.9-1.7
				C52.8,32.6,53.5,32.7,54.1,32.7"/>
		</g>
		<path d="M48.6,22.9c-0.5-0.1-0.8-0.1-1.4-0.1c-0.5,0-1,0.1-1.4,0.1c0-1,0.1-1.8,0.4-2.5c1.3,0.1,1.8,0.1,2.1,0.5
			C48.5,21.2,48.4,21.7,48.6,22.9 M49.2,21.3c0-1.7-0.9-1.8-2.2-1.9c-1-0.1-1.2-0.3-1.4-0.9h-0.1c-0.2,0.4-0.4,0.7-0.4,1.1
			c0,0.4,0.2,0.7,0.7,0.9c-0.7,0.8-0.6,2.1-0.7,3.6c0.6-0.1,1.3-0.1,1.9-0.1c0.6,0,1.2,0,1.9,0.1C48.9,23,49.2,22.2,49.2,21.3"/>
		<path d="M61.6,22.9c-0.5-0.1-0.9-0.1-1.4-0.1c-0.5,0-0.9,0.1-1.3,0.1c0-0.1-0.1-0.7-0.1-0.8c0-0.4,0.1-1,0.3-1.6
			c1.1,0,1.7,0,2,0.3C61.5,21.1,61.6,21.7,61.6,22.9 M62.1,21.1c0-1.4-0.6-1.7-1.2-1.7c-0.4,0-1.7,0.1-2.2-0.3
			c-0.1-0.1-0.2-0.5-0.2-0.8h-0.1c-0.1,0.3-0.4,0.7-0.4,1.1c0,0.4,0.1,0.8,0.6,1c-0.6,1-0.5,2.1-0.6,3.6c0.6,0,1.4-0.1,2.1-0.1
			c0.6,0,1.2,0,1.7,0.1C61.9,22.9,62.1,22.8,62.1,21.1"/>
		<path d="M51.2,20.2c0-0.7-0.6-1-0.8-1.5v-0.6L50.3,18c-0.2,0.3-0.6,0.8-0.6,1.2c0,0.3,0.1,0.6,0.3,0.8c0.2,0.3,0.3,0.5,0.4,0.6
			c0.1,0.1,0.1,0.5,0.1,0.6h0.1C50.8,20.9,51.2,20.5,51.2,20.2"/>
		<path d="M64.2,19.8c0-0.7-0.8-0.6-0.9-1.2c-0.1-0.1,0-0.4,0.1-0.6h-0.1c-0.3,0.3-0.6,0.8-0.6,1.2c0,0.3,0.1,0.6,0.3,0.8
			c0.1,0.1,0.5,0.3,0.5,0.5c0.1,0.1,0.1,0.6,0.1,0.8l0.2,0.1C63.9,20.8,64.2,20,64.2,19.8"/>
		<path d="M58.7,15.1c-0.6-0.7-0.1-2.4-0.6-3.4c-0.1-0.1-0.4-0.2-0.7-0.2h-1.3c-0.3,0-0.5-0.3-0.6-0.8h-0.1
			c-0.2,0.3-0.2,0.6-0.2,0.8c0,0.8,0.6,1.2,1,1.2c0.6,0,1.3-0.3,1.6,0.2c0.1,0.1,0.1,0.5,0.1,1.2c0,0.8-0.1,1.6-0.1,1.9h0.1
			C58.3,15.8,58.5,15.4,58.7,15.1"/>
		<path d="M50.9,15.1c-0.6-0.6-0.1-3.3-0.7-3.6c-0.3-0.1-0.5-0.1-0.8-0.1c-0.4,0-0.7,0.1-1,0.1c-0.4,0-0.6-0.2-0.8-1h-0.1
			c-0.1,0.3-0.1,0.6-0.1,0.9c0,0.6,0.1,1.1,0.7,1.3c-0.1,0.4-0.1,0.7-0.1,1c0,0.3,0,0.7,0.1,1.2c-0.6,0.2-0.7,0.2-0.8,0.3
			c-0.1,0.1-0.1,0.4-0.3,0.9c1.5,0,1.9-0.2,1.9-0.7c0-0.4-0.5-1.2-0.5-2c0-0.3,0.1-0.5,0.2-0.7c0.5,0,0.9-0.2,1.4,0
			c0.3,0.1,0.3,0.8,0.3,1.5c0,0.8-0.1,1.6-0.1,1.9h0.1C50.5,15.8,50.8,15.4,50.9,15.1"/>
		<path d="M60.8,15.1V15c-0.1-0.1-0.1-0.1-0.2-0.2c-0.2-0.3-0.2-0.9-0.2-1.3c0-0.2,0.1-0.4,0.1-0.6c0.1-0.3,0.3-0.5,0.3-1
			c0-0.5-0.5-0.5-0.9-0.5c-0.3,0-0.6-0.1-0.6-0.3c-0.1-0.1-0.1-0.4-0.2-0.5H59c-0.1,0.3-0.2,0.7-0.2,1c0,0.8,0.3,1.2,1.3,1.2
			c-0.1,0.8-0.1,1.4-0.1,2.2c0,0.3,0,0.7,0.1,1.1h0.1C60.4,15.8,60.6,15.6,60.8,15.1"/>
		<path d="M46.9,12.9c0-0.8-0.6-0.9-1.2-1.2c-0.4-0.2-0.7-0.5-0.6-1.4h-0.2c-0.4,0.5-0.6,0.8-0.8,1.2c-0.4,0-1-0.5-0.8-1.2h-0.1
			c-0.4,0.3-0.5,0.7-0.5,1.1c0,0.5,0.3,0.9,0.8,1.2c-0.2,0.4-0.8,1-0.8,1.5c0,0.5,0.1,1,0.1,1.2c0,0.3,0,0.5-0.1,0.6
			c-0.1,0-0.1,0.1,0.1,0.1c0.3-0.3,0.7-0.7,0.7-1.5c0-0.3-0.1-0.7-0.1-1c0-0.5,0.5-1,0.8-1.5c0.8,0.4,2.1,0.6,2.1,1.6
			c0,0.3-0.2,0.8-0.5,1c-0.1,0.1-0.5,0.1-0.8,0.1h-1c-0.1,0.4-0.2,0.7-0.4,1.1h0.2c0.1,0,0.4-0.1,0.6-0.1c0.4,0,0.6,0.1,0.8,0.1
			c0.6,0,0.9-0.3,1.2-1.2C46.6,14.4,46.9,13.6,46.9,12.9"/>
		<path d="M53,15.1v-0.1c-0.1,0-0.2-0.1-0.3-0.2c-0.1-0.2-0.1-0.8-0.1-1.3c0-0.1,0.1-0.4,0.1-0.6c0.1-0.2,0.3-0.5,0.3-1
			c0-0.3-0.5-0.4-1-0.5c-0.3-0.1-0.5-0.2-0.6-0.4c-0.1-0.1-0.1-0.3-0.2-0.5h-0.1c-0.1,0.4-0.1,0.7-0.1,1c0,0.8,0.2,1.1,1.3,1.1
			c-0.1,0.5-0.1,0.9-0.1,1.4c0,0.6-0.1,1.4-0.1,1.9h0.2C52.6,15.7,52.8,15.6,53,15.1"/>
		<path d="M65.5,14.5c0-0.5-0.2-0.8-0.6-1.1c-0.1-0.1-0.3-0.3-0.3-0.3c0.3-0.3,0.8-0.7,0.8-1.2c0-0.2-0.1-0.4-0.2-0.6
			c-0.1-0.1-0.4-0.2-0.5-0.4c-0.1-0.2-0.1-0.3,0-0.5l-0.1-0.1c-0.3,0.3-0.6,0.6-0.6,1c0,0.8,1,0.7,0.3,1.7c-1-0.5-2.3-1-2.1-2.5H62
			c-0.3,0.3-0.5,0.8-0.5,1.1c0,0.8,0.6,1.4,1.1,1.7c-0.3,0.1-0.4,0.2-0.5,0.3c-0.3,0.2-0.3,0.5-0.3,0.8c0,0.3,0,0.6,0.1,0.9
			l-0.5,0.3v0.2c0.7,0.1,1.6,0.3,1.6-0.7c0-0.3-0.5-0.7-0.5-0.9c0-0.4,0.3-0.6,0.3-0.8c0.8,0.4,1.9,0.8,1.9,1.7c0,0.2,0,0.5-0.1,0.7
			h0.2C65.3,15.5,65.5,14.9,65.5,14.5"/>
	</g>
	<g>
		<path class="st0" d="M76.7,95.1c2.6,2.6,6.7,2.6,9.2,0c2.6-2.6,2.6-6.7,0-9.2c-2.6-2.6-6.7-2.6-9.2,0
			C74.1,88.4,74.1,92.6,76.7,95.1"/>
		<path class="st0" d="M62.3,109.5c2.6,2.6,6.7,2.6,9.2,0c2.6-2.6,2.6-6.7,0-9.2c-2.6-2.6-6.7-2.6-9.2,0
			C59.8,102.8,59.8,106.9,62.3,109.5"/>
		<path class="st0" d="M36.1,100.2c-2.6,2.6-2.6,6.7,0,9.2c2.6,2.6,6.7,2.6,9.2,0c2.6-2.6,2.6-6.7,0-9.2
			C42.8,97.7,38.7,97.7,36.1,100.2"/>
		<path class="st0" d="M21.8,85.9c-2.6,2.6-2.6,6.7,0,9.2c2.6,2.6,6.7,2.6,9.2,0c2.6-2.6,2.6-6.7,0-9.2
			C28.5,83.3,24.4,83.3,21.8,85.9"/>
	</g>
	<g>
		<path class="st3" d="M36.1,54.6c2.6,2.6,6.7,2.6,9.2,0c2.6-2.6,2.6-6.7,0-9.2c-2.6-2.6-6.7-2.6-9.2,0C33.6,47.9,33.6,52,36.1,54.6
			"/>
		<path class="st3" d="M21.8,68.9c2.6,2.6,6.7,2.6,9.2,0c2.6-2.6,2.6-6.7,0-9.2c-2.6-2.6-6.7-2.6-9.2,0
			C19.2,62.2,19.2,66.4,21.8,68.9"/>
		<path class="st3" d="M76.7,59.7c-2.6,2.6-2.6,6.7,0,9.2c2.6,2.6,6.7,2.6,9.2,0c2.6-2.6,2.6-6.7,0-9.2
			C83.4,57.1,79.2,57.1,76.7,59.7"/>
		<path class="st3" d="M62.3,45.3c-2.6,2.6-2.6,6.7,0,9.2c2.6,2.6,6.7,2.6,9.2,0c2.6-2.6,2.6-6.7,0-9.2C69,42.8,64.9,42.8,62.3,45.3
			"/>
	</g>
	<g>
		<polygon class="st0" points="53.9,52.8 29.7,77 78.1,77 		"/>
		<polygon class="st3" points="53.9,102 78.1,77.8 29.6,77.8 		"/>
	</g>
</g>
</svg>
